<?xml version="1.0" encoding="utf-8"?>
<!-- Generator: Adobe Illustrator 15.0.0, SVG Export Plug-In . SVG Version: 6.00 Build 0)  -->
<!DOCTYPE svg PUBLIC "-//W3C//DTD SVG 1.1//EN" "http://www.w3.org/Graphics/SVG/1.1/DTD/svg11.dtd">
<svg version="1.1" id="שכבה_1" xmlns="http://www.w3.org/2000/svg" xmlns:xlink="http://www.w3.org/1999/xlink" x="0px" y="0px"
	 width="30px" height="30px" viewBox="0 0 30 30" enable-background="new 0 0 30 30" xml:space="preserve">
<path fill="#37B34A" d="M0.5,17.407c0,2.045,1.683,3.705,3.764,3.705h8.726l0.833,1.71c-0.258,0.237-0.315,0.593-0.119,1.199
	l1.219,3.659c0.35,0.718,1.224,1.022,1.952,0.68c0.729-0.341,1.039-1.203,0.691-1.919l-2.121-3.237
	c-0.312-0.459-0.657-0.681-1.017-0.654l-0.703-1.438h12.011c2.079,0,3.764-1.66,3.764-3.705c0-1.324-0.709-2.482-1.775-3.139
	c0.021,0.117,0.04,0.231,0.04,0.354c0,1.318-1.09,2.386-2.43,2.386h-4.172l-2.741-5.718c-0.197-0.497-0.663-0.822-1.144-0.824
	c0,0-0.117,0-0.176,0H8.539l-1.602-3.28C7.192,6.949,7.251,6.584,7.055,5.98L5.836,2.319C5.488,1.604,4.613,1.297,3.885,1.64
	s-1.037,1.203-0.69,1.919l2.123,3.237c0.31,0.459,0.655,0.681,1.016,0.653l1.542,3.166c-0.273,0.168-0.453,0.465-0.453,0.807
	c0,0.527,0.437,0.959,0.971,0.959h0.342l0.649,1.326c-0.176,0.176-0.283,0.414-0.283,0.672c-0.002,0.527,0.431,0.96,0.968,0.96
	h0.108l0.814,1.669H4.666c-1.341,0-2.429-1.067-2.429-2.386c0-0.122,0.019-0.236,0.038-0.354C1.208,14.925,0.5,16.083,0.5,17.407z
	 M14.049,12.381l-1.068,1.049l-2.908-0.004c-0.03,0-0.06,0.001-0.089,0.004l-0.513-1.049H14.049z M11.729,17.008l-0.814-1.667
	l2.47,0.005h0.001c0.016,0,0.034,0,0.05,0c0.007,0,0.014-0.001,0.02-0.002c0.249-0.019,0.471-0.135,0.646-0.308
	c0.227-0.214,0.445-0.438,0.668-0.659c0.04-0.039,0.527-0.456,0.509-0.502l1.558,3.133H11.729z M16.778,8.597
	c0-0.9-0.742-1.634-1.659-1.634c-0.918,0-1.662,0.733-1.662,1.634c0,0.902,0.744,1.636,1.662,1.636
	C16.036,10.232,16.778,9.499,16.778,8.597z"/>
</svg>
