<?xml version="1.0" encoding="utf-8"?>
<!-- Generator: Adobe Illustrator 15.0.0, SVG Export Plug-In . SVG Version: 6.00 Build 0)  -->
<!DOCTYPE svg PUBLIC "-//W3C//DTD SVG 1.1//EN" "http://www.w3.org/Graphics/SVG/1.1/DTD/svg11.dtd">
<svg version="1.1" id="שכבה_1" xmlns="http://www.w3.org/2000/svg" xmlns:xlink="http://www.w3.org/1999/xlink" x="0px" y="0px"
	 width="30px" height="30px" viewBox="0 0 30 30" enable-background="new 0 0 30 30" xml:space="preserve">
<g>
	<g>
		<rect x="9.913" y="15.678" fill="#497BBE" width="1.522" height="1.471"/>
		<rect x="14.262" y="15.678" fill="#497BBE" width="1.524" height="1.471"/>
		<rect x="18.564" y="15.678" fill="#497BBE" width="1.521" height="1.471"/>
		<rect x="9.913" y="18.503" fill="#497BBE" width="1.522" height="1.471"/>
		<rect x="14.262" y="18.503" fill="#497BBE" width="1.524" height="1.471"/>
		<rect x="18.564" y="18.503" fill="#497BBE" width="1.521" height="1.471"/>
		<rect x="9.913" y="21.4" fill="#497BBE" width="1.522" height="1.471"/>
		<rect x="14.262" y="21.4" fill="#497BBE" width="1.524" height="1.471"/>
		<rect x="18.564" y="21.4" fill="#497BBE" width="1.521" height="1.471"/>
	</g>
	<path fill="#497BBE" d="M25.125,5.229h-1.164V4.885C23.961,3.849,23.117,3,22.086,3h-0.025c-1.033,0-1.877,0.849-1.877,1.885v0.344
		H9.815V4.885C9.815,3.849,8.971,3,7.94,3H7.912C6.88,3,6.037,3.849,6.037,4.885v0.344H4.875C3.844,5.229,3,6.078,3,7.115v17.997
		C3,26.15,3.844,27,4.875,27h20.25C26.156,27,27,26.15,27,25.112V7.115C27,6.078,26.156,5.229,25.125,5.229z M20.934,4.885
		c0-0.626,0.506-1.129,1.127-1.129h0.025c0.621,0,1.125,0.503,1.125,1.129v3.35c0,0.62-0.504,1.131-1.125,1.131h-0.025
		c-0.621,0-1.127-0.511-1.127-1.131V4.885z M6.787,4.885c0-0.626,0.504-1.129,1.125-1.129H7.94c0.62,0,1.125,0.503,1.125,1.129v3.35
		c0,0.62-0.505,1.131-1.125,1.131H7.912c-0.621,0-1.125-0.511-1.125-1.131V4.885z M25.125,25.492H4.875
		c-0.203,0-0.375-0.172-0.375-0.38V11.877h21v13.235C25.5,25.32,25.33,25.492,25.125,25.492z"/>
</g>
</svg>
