<?xml version="1.0" encoding="utf-8"?>
<!-- Generator: Adobe Illustrator 15.0.0, SVG Export Plug-In . SVG Version: 6.00 Build 0)  -->
<!DOCTYPE svg PUBLIC "-//W3C//DTD SVG 1.1//EN" "http://www.w3.org/Graphics/SVG/1.1/DTD/svg11.dtd">
<svg version="1.1" id="שכבה_1" xmlns="http://www.w3.org/2000/svg" xmlns:xlink="http://www.w3.org/1999/xlink" x="0px" y="0px"
	 width="30px" height="30px" viewBox="0 0 30 30" enable-background="new 0 0 30 30" xml:space="preserve">
<path fill="#497BBD" d="M9.189,25.252c-0.166-0.531-0.288-1.023-0.365-1.479C8.747,23.32,8.708,22.9,8.708,22.512
	c0-0.752,0.119-1.42,0.356-2c0.238-0.582,0.531-1.096,0.881-1.545c0.348-0.447,0.73-0.846,1.145-1.195
	c0.416-0.348,0.797-0.674,1.146-0.979c0.348-0.305,0.642-0.6,0.879-0.889c0.238-0.287,0.357-0.591,0.357-0.913
	s-0.119-0.625-0.357-0.913c-0.237-0.288-0.531-0.584-0.879-0.889c-0.35-0.304-0.73-0.631-1.146-0.979
	c-0.414-0.35-0.797-0.748-1.145-1.195c-0.35-0.449-0.643-0.963-0.881-1.545c-0.237-0.58-0.356-1.247-0.356-2
	c0-0.388,0.039-0.808,0.116-1.262s0.199-0.946,0.365-1.478H8.144c-0.288,0-0.512-0.033-0.673-0.1
	C7.311,4.566,7.194,4.48,7.123,4.375C7.051,4.27,7.009,4.154,6.998,4.026C6.987,3.899,6.981,3.78,6.981,3.669h16.037
	c0,0.11-0.006,0.229-0.017,0.356c-0.011,0.128-0.053,0.244-0.125,0.35c-0.071,0.104-0.188,0.19-0.348,0.257
	c-0.161,0.066-0.385,0.1-0.673,0.1h-1.046c0.166,0.531,0.288,1.023,0.365,1.478s0.116,0.874,0.116,1.262
	c0,0.764-0.119,1.434-0.356,2.009c-0.238,0.575-0.531,1.087-0.881,1.536c-0.348,0.447-0.73,0.846-1.145,1.195
	c-0.416,0.348-0.797,0.675-1.146,0.979c-0.348,0.305-0.642,0.601-0.879,0.889c-0.238,0.288-0.357,0.592-0.357,0.913
	s0.119,0.625,0.357,0.913c0.237,0.289,0.531,0.584,0.879,0.889c0.35,0.305,0.73,0.631,1.146,0.979
	c0.414,0.35,0.797,0.748,1.145,1.195c0.35,0.449,0.643,0.963,0.881,1.545c0.237,0.58,0.356,1.248,0.356,2
	c0,0.389-0.039,0.809-0.116,1.262c-0.077,0.455-0.199,0.947-0.365,1.479h1.046c0.288,0,0.512,0.035,0.673,0.107
	c0.16,0.072,0.276,0.16,0.348,0.266c0.072,0.105,0.114,0.221,0.125,0.348c0.011,0.129,0.017,0.248,0.017,0.357H6.981
	c0-0.109,0.006-0.229,0.017-0.357c0.011-0.127,0.053-0.242,0.125-0.348c0.071-0.105,0.188-0.193,0.348-0.266
	c0.161-0.072,0.385-0.107,0.673-0.107H9.189z M15.266,11.721c0.454,0,0.971-0.044,1.553-0.133c0.58-0.089,1.187-0.26,1.817-0.515
	c0.232-0.222,0.448-0.456,0.647-0.706c0.199-0.248,0.373-0.52,0.523-0.813c0.148-0.294,0.268-0.615,0.356-0.963
	c0.089-0.35,0.133-0.729,0.133-1.138c0-0.388-0.044-0.806-0.133-1.253c-0.089-0.449-0.227-0.938-0.415-1.47h-9.496
	c-0.188,0.531-0.326,1.021-0.415,1.47C9.748,6.649,9.704,7.067,9.704,7.455c0,0.708,0.122,1.319,0.365,1.835
	c0.243,0.514,0.548,0.977,0.913,1.386c0.73,0.354,1.472,0.617,2.225,0.788C13.96,11.635,14.646,11.721,15.266,11.721z
	 M10.152,25.002c0.222-0.332,0.479-0.686,0.771-1.063c0.294-0.375,0.598-0.746,0.914-1.111c0.314-0.365,0.636-0.715,0.963-1.047
	c0.326-0.332,0.631-0.625,0.912-0.879c0.283-0.256,0.537-0.457,0.764-0.607c0.228-0.148,0.401-0.223,0.523-0.223
	c-0.022-0.775-0.05-1.447-0.083-2.018s-0.069-1.047-0.108-1.428c-0.038-0.383-0.088-0.682-0.148-0.896
	c-0.062-0.217-0.125-0.368-0.191-0.457c-0.056,0.421-0.21,0.8-0.465,1.136c-0.255,0.338-0.559,0.664-0.913,0.98
	c-0.354,0.314-0.73,0.633-1.129,0.955c-0.398,0.32-0.764,0.68-1.096,1.078s-0.608,0.85-0.83,1.354s-0.332,1.088-0.332,1.752
	c0,0.354,0.036,0.736,0.108,1.145C9.884,24.084,9.997,24.527,10.152,25.002z M19.848,24.969c0.155-0.465,0.269-0.898,0.34-1.303
	c0.072-0.404,0.108-0.783,0.108-1.137c0-0.664-0.11-1.246-0.332-1.744s-0.498-0.945-0.83-1.344s-0.694-0.762-1.087-1.088
	c-0.394-0.326-0.767-0.645-1.121-0.955c-0.354-0.309-0.661-0.633-0.922-0.971c-0.26-0.338-0.417-0.711-0.473-1.121
	c-0.066,0.077-0.127,0.222-0.183,0.431c-0.056,0.211-0.103,0.506-0.142,0.889c-0.038,0.381-0.074,0.857-0.107,1.428
	s-0.061,1.242-0.083,2.018c0.188,0,0.481,0.16,0.88,0.48c0.398,0.322,0.833,0.725,1.303,1.213c0.471,0.486,0.944,1.016,1.42,1.584
	C19.095,23.92,19.505,24.461,19.848,24.969z"/>
</svg>
