<?xml version="1.0" encoding="utf-8"?>
<!-- Generator: Adobe Illustrator 15.0.0, SVG Export Plug-In . SVG Version: 6.00 Build 0)  -->
<!DOCTYPE svg PUBLIC "-//W3C//DTD SVG 1.1//EN" "http://www.w3.org/Graphics/SVG/1.1/DTD/svg11.dtd">
<svg version="1.1" id="שכבה_1" xmlns="http://www.w3.org/2000/svg" xmlns:xlink="http://www.w3.org/1999/xlink" x="0px" y="0px"
	 width="30px" height="30px" viewBox="0 0 30 30" enable-background="new 0 0 30 30" xml:space="preserve">
<g>
	<path fill="#497BBD" d="M24.027,9.977c-0.478-1.026-1.075-1.581-1.513-1.841c-0.001-0.08,0.007-0.17,0.027-0.27
		c0.197-0.986-0.34-1.405-0.641-1.52c0,0,0,0,0,0.001c-0.041-0.016-0.086-0.022-0.132-0.023c-0.273-0.006-0.487,0.247-0.479,0.566
		c0.008,0.263,0.167,0.49,0.377,0.563c-0.001,0.003-0.002,0.006-0.004,0.01l0,0c0,0.003,0,0.004-0.002,0.006
		c-0.01,0.026-0.021,0.051-0.033,0.074c-0.187,0.3-0.92,0.447-1.133,0.479c-0.23,0.036-0.573,0.257-0.709,0.579
		c-0.122,0.285-0.409,0.84-0.681,1.12l-0.007-0.018c-0.035-0.079-0.1-0.124-0.145-0.1c-0.043,0.023-0.053,0.103-0.021,0.182
		c-0.022,0.002-0.053,0.014-0.076,0.054c-0.046,0.072-0.824,0.394-0.842-0.116c0.032-0.135,0.063-0.233,0.086-0.292
		c0.124-0.293,0.273-0.452,0.326-0.62c0.052-0.169,0.08-0.641,0.05-0.96c-0.029-0.316-0.297-0.797-0.768-1.167
		c-0.47-0.372-1.559-0.621-1.944-0.631c-0.203-0.004-0.309-0.014-0.363-0.024c0.022-0.006,0.04-0.03,0.04-0.059
		c0-0.037-0.025-0.065-0.055-0.065l-0.04-0.001c0.025-0.089,0.091-0.208,0.181-0.273c0.146-0.104,0.366-0.329,0.373-0.504
		c0.007-0.179-0.155-0.341-0.301-0.464c-0.145-0.124-0.536-0.302-0.581-0.382c-0.045-0.084-0.059-0.245-0.049-0.353
		c0-0.009,0.002-0.018,0.002-0.028c0.088-0.01,0.156-0.104,0.155-0.222c0-0.112-0.062-0.206-0.144-0.228
		c-0.002-0.003-0.003-0.005-0.005-0.007c-0.044-0.054-0.151-0.106-0.085-0.216c0.068-0.11-0.053-0.227-0.104-0.229l0,0
		c-0.052,0.001-0.171,0.111-0.103,0.225c0.067,0.112-0.039,0.159-0.083,0.212C14.604,3.438,14.602,3.44,14.6,3.443
		c-0.081,0.017-0.143,0.108-0.143,0.22c0,0.117,0.068,0.217,0.156,0.229c0.001,0.009,0.002,0.02,0.004,0.027
		c0.01,0.109-0.003,0.271-0.047,0.35c-0.045,0.081-0.436,0.237-0.579,0.355c-0.145,0.117-0.306,0.272-0.297,0.451
		c0.007,0.176,0.228,0.41,0.375,0.523c0.092,0.068,0.156,0.19,0.184,0.281L14.211,5.88c-0.029-0.001-0.053,0.026-0.053,0.063
		c0,0.028,0.016,0.054,0.039,0.061c-0.054,0.007-0.159,0.014-0.362,0.01c-0.386-0.01-1.473,0.193-1.939,0.547
		c-0.47,0.352-0.735,0.823-0.763,1.144c-0.028,0.318,0.003,0.797,0.057,0.968c0.052,0.172,0.203,0.339,0.328,0.64
		c0.126,0.302,0.431,1.769,0.408,3.546c-0.022,1.776-0.067,3.368-1.443,4.144c0,0-0.031,0.032-0.069,0.084
		c-0.095-0.037-0.208-0.046-0.279,0.041c-0.097,0.115-0.283,0.184-0.418,0.172c-0.136-0.01-0.595-0.146-0.697-0.613
		c0,0-0.063-0.394-0.127-0.496c-0.063-0.105-0.081-0.23-0.088-0.334c-0.006-0.103,0.016-1.009,0.035-1.606
		c0.02-0.599-0.035-1.976-0.141-2.524c-0.105-0.548-0.414-1.404-0.724-1.882C7.666,9.364,7.096,8.787,7.081,8.49
		C7.064,8.196,6.709,8.757,6.719,8.878c0,0-0.397-0.225-0.843-0.002C5.429,9.097,5.445,9.351,5.594,9.325s0.345,0.107,0.653,0.382
		c0.31,0.273,0.838,0.895,1.075,1.561c0.238,0.663,0.339,1.482,0.32,1.993c-0.021,0.51-0.104,1.242-0.167,1.658
		c-0.063,0.414-0.241,1.146-0.272,1.423c0,0-0.423,0.94-0.015,1.243c0,0-0.32,0.729,0.079,1.453c0.357,0.643,1.187,1.368,1.545,2.1
		c0.073,0.709,0.414,1.708,1.508,2.556c-0.005,0.121,0.005,0.189-0.028,0.298c-0.047,0.149-0.176,0.316-0.107,0.434
		c0.069,0.116,0.176,0.022,0.167-0.01c-0.01-0.035,0.021-0.085,0.076-0.018s0.04,0.472-0.135,0.684
		c-0.174,0.21-0.489,0.633-0.598,0.754c-0.107,0.124-0.488,1.078,0.084,1.141c0.573,0.062,0.843,0.01,1.07-0.206
		c0.226-0.216,0.662-0.816,1.006-0.643c0,0,0.07,0.016,0.102-0.144c0.032-0.161,0.113-0.184,0.123-0.102
		c0.009,0.084,0.095,0.134,0.16,0.106c0,0,0.07,0.139,0.208,0.033c0,0,0.329,0.079,0.32-0.226c0,0,0.106-0.102,0.354,0.149
		c0.247,0.25,0.907,0.095,1.043-0.066c0.137-0.16,0.298-0.216,0.45-0.17c0.151,0.045,0.191-0.044,0.201-0.1
		c0.006-0.03,0.023-0.043,0.04-0.049c0.015,0.006,0.032,0.019,0.037,0.049c0.011,0.056,0.052,0.145,0.204,0.101
		c0.15-0.045,0.313,0.01,0.452,0.171c0.137,0.16,0.797,0.316,1.043,0.067c0.245-0.248,0.353-0.147,0.353-0.147
		c-0.007,0.303,0.321,0.226,0.321,0.226c0.139,0.104,0.207-0.033,0.207-0.033c0.066,0.027,0.151-0.022,0.161-0.104
		c0.009-0.083,0.09-0.062,0.122,0.099c0.033,0.16,0.104,0.144,0.104,0.144c0.342-0.17,0.782,0.425,1.01,0.64
		c0.227,0.214,0.497,0.265,1.07,0.204c0.572-0.062,0.187-1.007,0.077-1.128c-0.108-0.12-0.426-0.54-0.601-0.749
		c-0.176-0.211-0.193-0.612-0.139-0.679c0.053-0.065,0.085-0.017,0.075,0.018c-0.01,0.032,0.099,0.126,0.167,0.011
		c0.067-0.115-0.062-0.281-0.109-0.43c-0.035-0.108-0.024-0.176-0.031-0.296c0.489-0.373,0.826-0.775,1.056-1.17
		c0.409-0.527,0.721-1.513,0.889-2.005c0.197-0.581,0.928-1.186,1.134-1.376c0.017-0.017,0.033-0.032,0.049-0.049
		c0.033,0.033,0.08,0.039,0.104,0.009c0.023-0.028,0.016-0.08-0.018-0.115c0.032-0.043,0.056-0.085,0.075-0.122l0.03,0.033
		c0.033,0.034,0.08,0.038,0.104,0.01s0.016-0.08-0.019-0.115l-0.006-0.006c-0.002-0.003-0.004-0.005-0.007-0.009l-0.058-0.059
		c0.488-0.713,1.561-3.349,1.7-4.507C24.565,12.977,24.567,11.128,24.027,9.977z M22.976,15.042
		c-0.215,1.154-0.911,2.508-1.112,2.837c-0.031-0.022-0.068-0.022-0.089,0.003c-0.015,0.019-0.017,0.045-0.008,0.07
		c-0.031,0.047-0.064,0.089-0.099,0.125c-0.026-0.011-0.056-0.008-0.073,0.013c-0.014,0.019-0.016,0.044-0.009,0.068
		c-0.438,0.366-1.096,0.175-1.321-0.141c-0.218-0.304-0.595-0.628-1.078-0.919c-0.005-0.006-0.008-0.009-0.008-0.009
		c-1.233-0.712-1.408-2.053-1.454-3.592c0.157-0.774,0.602-1.512,1.233-1.653c0.541-0.121,0.689-0.253,0.73-0.329l0.003,0.007
		c0.034,0.079,0.1,0.124,0.146,0.1c0.045-0.024,0.053-0.109,0.019-0.188l-0.018-0.04c0.141-0.13,0.298-0.364,0.445-0.781
		c0.417-1.18,1.486-1.387,2.284-0.174C23.373,11.651,23.199,13.823,22.976,15.042z"/>
	<path fill-rule="evenodd" clip-rule="evenodd" fill="none" stroke="#FFFFFF" stroke-width="0.6" stroke-miterlimit="10" d="
		M11.176,9.541c0,0,4.289,1.094,7.272,0"/>
</g>
</svg>
