<?xml version="1.0" encoding="utf-8"?>
<!-- Generator: Adobe Illustrator 15.0.0, SVG Export Plug-In . SVG Version: 6.00 Build 0)  -->
<!DOCTYPE svg PUBLIC "-//W3C//DTD SVG 1.1//EN" "http://www.w3.org/Graphics/SVG/1.1/DTD/svg11.dtd">
<svg version="1.1" id="שכבה_1" xmlns="http://www.w3.org/2000/svg" xmlns:xlink="http://www.w3.org/1999/xlink" x="0px" y="0px"
	 width="30px" height="30px" viewBox="0 0 30 30" enable-background="new 0 0 30 30" xml:space="preserve">
<g>
	<path fill="#497BBE" d="M23.676,25.5v-4.217H29.5l-3.288-5.646h1.6L24.415,9.8h1.259l-3.089-5.3l-3.083,5.3h1.26l-3.398,5.836
		h1.603l-3.291,5.646H21.5l0.024,4.217"/>
	<g>
		<path fill="#497BBE" d="M11.73,24.999l-0.988-3.651h3.193v-1.352h1.204v-0.902H12.43v0.902h1.202v0.477h-3.135l-1.013-3.596h2.49
			v-1.489H3.665v1.489h2.491l-1.012,3.596H2.005v-0.477h1.204v-0.902H0.5v0.902h1.202v1.352h3.193l-1.025,3.651"/>
		<polygon fill="#FFFFFF" points="7.165,16.877 8.473,16.877 9.486,20.473 6.154,20.473 		"/>
		<polygon fill="#FFFFFF" points="5.275,23.558 5.906,21.348 9.733,21.348 10.458,23.558 		"/>
	</g>
	<rect x="1.764" y="24.5" fill="#497BBE" width="27.736" height="1"/>
</g>
</svg>
