<?xml version="1.0" encoding="utf-8"?>
<!-- Generator: Adobe Illustrator 15.0.0, SVG Export Plug-In . SVG Version: 6.00 Build 0)  -->
<!DOCTYPE svg PUBLIC "-//W3C//DTD SVG 1.1//EN" "http://www.w3.org/Graphics/SVG/1.1/DTD/svg11.dtd">
<svg version="1.1" id="שכבה_1" xmlns="http://www.w3.org/2000/svg" xmlns:xlink="http://www.w3.org/1999/xlink" x="0px" y="0px"
	 width="160px" height="45px" viewBox="0 0 160 45" enable-background="new 0 0 160 45" xml:space="preserve">
<g>
	<path fill="#E11D39" d="M42.568,22.501c0,11.601-9.4,20.999-21,20.999s-21-9.398-21-20.999s9.4-21.001,21-21.001
		S42.568,10.901,42.568,22.501z"/>
	<path fill="#FFFFFF" d="M15.01,32.5c-0.254,0-0.475-0.084-0.663-0.254c-0.186-0.168-0.279-0.38-0.279-0.634
		c0-0.253,0.094-0.471,0.279-0.657l5.5-5.469c-0.187-0.371-0.279-0.76-0.279-1.164c0-0.59,0.17-1.123,0.509-1.594
		c0.339-0.475,0.78-0.803,1.324-0.988v-8.33c0-0.253,0.088-0.468,0.268-0.646c0.178-0.177,0.395-0.265,0.648-0.265
		s0.472,0.088,0.649,0.265c0.178,0.178,0.268,0.393,0.268,0.646v8.33c0.544,0.186,0.984,0.514,1.322,0.988
		c0.342,0.471,0.512,1.004,0.512,1.594c0,0.388-0.073,0.748-0.218,1.077c-0.144,0.327-0.34,0.614-0.585,0.858
		c-0.246,0.244-0.54,0.438-0.878,0.582c-0.341,0.145-0.696,0.216-1.07,0.216c-0.407,0-0.798-0.093-1.171-0.278l-5.5,5.469
		C15.478,32.417,15.264,32.5,15.01,32.5z"/>
	<g>
		<path fill="#E11D39" d="M52.549,20.951c-0.605-0.168-1.175-0.385-1.708-0.651c-0.13-0.069-0.238-0.175-0.324-0.314
			s-0.13-0.287-0.13-0.441c0-0.224,0.083-0.423,0.249-0.599c0.166-0.175,0.378-0.262,0.638-0.262c0.129,0,0.252,0.021,0.367,0.063
			c0.894,0.406,1.852,0.609,2.875,0.609c1.628,0,2.774-0.553,3.438-1.659c0.663-1.105,1.03-2.345,1.103-3.717
			c-0.433,0.532-1.009,0.973-1.729,1.322c-0.721,0.351-1.622,0.525-2.703,0.525c-0.98,0-1.841-0.203-2.583-0.609
			c-0.742-0.405-1.322-0.979-1.74-1.722s-0.627-1.609-0.627-2.604c0-0.883,0.216-1.688,0.649-2.415
			c0.432-0.729,1.052-1.303,1.859-1.723s1.751-0.63,2.832-0.63c3.949,0,5.924,2.507,5.924,7.519c0,1.218-0.206,2.4-0.616,3.549
			c-0.411,1.147-1.084,2.104-2.021,2.866c-0.937,0.764-2.147,1.145-3.632,1.145C53.86,21.203,53.154,21.119,52.549,20.951z
			 M58.948,11.774C58.559,9.198,57.24,7.91,54.992,7.91c-0.663,0-1.25,0.137-1.762,0.409c-0.512,0.273-0.905,0.641-1.178,1.103
			c-0.274,0.462-0.411,0.966-0.411,1.513c0,0.952,0.274,1.715,0.822,2.289c0.547,0.574,1.347,0.86,2.399,0.86
			C56.735,14.084,58.098,13.314,58.948,11.774z"/>
		<path fill="#E11D39" d="M66.125,20.951c-0.605-0.168-1.175-0.385-1.708-0.651c-0.13-0.069-0.238-0.175-0.324-0.314
			s-0.13-0.287-0.13-0.441c0-0.224,0.083-0.423,0.249-0.599c0.166-0.175,0.378-0.262,0.638-0.262c0.129,0,0.252,0.021,0.367,0.063
			c0.894,0.406,1.852,0.609,2.875,0.609c1.628,0,2.774-0.553,3.438-1.659c0.663-1.105,1.03-2.345,1.103-3.717
			c-0.433,0.532-1.009,0.973-1.729,1.322c-0.721,0.351-1.622,0.525-2.703,0.525c-0.98,0-1.841-0.203-2.583-0.609
			c-0.742-0.405-1.322-0.979-1.74-1.722s-0.627-1.609-0.627-2.604c0-0.883,0.216-1.688,0.649-2.415
			c0.432-0.729,1.052-1.303,1.859-1.723s1.751-0.63,2.832-0.63c3.949,0,5.924,2.507,5.924,7.519c0,1.218-0.206,2.4-0.616,3.549
			c-0.411,1.147-1.084,2.104-2.021,2.866c-0.937,0.764-2.147,1.145-3.632,1.145C67.437,21.203,66.731,21.119,66.125,20.951z
			 M72.525,11.774c-0.389-2.576-1.708-3.864-3.957-3.864c-0.663,0-1.25,0.137-1.762,0.409c-0.512,0.273-0.905,0.641-1.178,1.103
			c-0.274,0.462-0.411,0.966-0.411,1.513c0,0.952,0.274,1.715,0.822,2.289c0.547,0.574,1.347,0.86,2.399,0.86
			C70.312,14.084,71.674,13.314,72.525,11.774z"/>
		<path fill="#E11D39" d="M77.529,15.712c-0.166-0.161-0.249-0.36-0.249-0.599s0.083-0.441,0.249-0.609s0.371-0.252,0.616-0.252
			h4.086c0.244,0,0.453,0.084,0.627,0.252c0.172,0.168,0.26,0.371,0.26,0.609s-0.088,0.438-0.26,0.599
			c-0.174,0.161-0.383,0.241-0.627,0.241h-4.086C77.9,15.953,77.695,15.873,77.529,15.712z"/>
		<path fill="#E11D39" d="M95.473,20.814c-0.194-0.188-0.292-0.416-0.292-0.683v-7.056c0-0.742-0.115-1.319-0.346-1.732
			s-0.605-0.707-1.125-0.882c-0.518-0.175-1.239-0.263-2.161-0.263c-1.269,0-2.753,0.154-4.454,0.462
			c-0.245,0.042-0.472-0.003-0.681-0.137c-0.209-0.133-0.335-0.318-0.378-0.557c-0.029-0.224,0.032-0.427,0.184-0.608
			c0.15-0.182,0.35-0.301,0.594-0.357c0.779-0.153,1.601-0.272,2.465-0.356c0.865-0.084,1.65-0.126,2.357-0.126
			c1.34,0,2.41,0.154,3.21,0.462s1.384,0.795,1.751,1.459c0.367,0.665,0.551,1.544,0.551,2.636v7.056
			c0,0.267-0.094,0.494-0.281,0.683c-0.188,0.189-0.418,0.284-0.691,0.284S95.667,21.004,95.473,20.814z M86.933,20.814
			c-0.194-0.188-0.291-0.416-0.291-0.683v-5.648c0-0.266,0.094-0.494,0.281-0.683c0.187-0.189,0.417-0.283,0.691-0.283
			c0.273,0,0.508,0.094,0.702,0.283c0.194,0.188,0.292,0.417,0.292,0.683v5.648c0,0.267-0.094,0.494-0.281,0.683
			c-0.188,0.189-0.418,0.284-0.691,0.284S87.128,21.004,86.933,20.814z"/>
		<path fill="#E11D39" d="M115.363,20.814c-0.195-0.188-0.293-0.416-0.293-0.683v-7.056c0-0.742-0.115-1.319-0.346-1.732
			s-0.605-0.707-1.124-0.882s-1.239-0.263-2.161-0.263c-1.27,0-2.754,0.154-4.454,0.462c-0.245,0.042-0.472-0.003-0.681-0.137
			c-0.209-0.133-0.336-0.318-0.379-0.557c-0.029-0.224,0.033-0.427,0.184-0.608c0.151-0.182,0.35-0.301,0.595-0.357
			c0.778-0.153,1.601-0.272,2.465-0.356s1.649-0.126,2.356-0.126c1.34,0,2.41,0.154,3.211,0.462c0.799,0.308,1.383,0.795,1.75,1.459
			c0.368,0.665,0.552,1.544,0.552,2.636v7.056c0,0.267-0.094,0.494-0.281,0.683c-0.188,0.189-0.418,0.284-0.691,0.284
			C115.791,21.099,115.556,21.004,115.363,20.814z M106.823,20.814c-0.194-0.188-0.292-0.416-0.292-0.683v-5.648
			c0-0.266,0.094-0.494,0.281-0.683c0.188-0.189,0.418-0.283,0.691-0.283s0.508,0.094,0.703,0.283
			c0.194,0.188,0.291,0.417,0.291,0.683v5.648c0,0.267-0.094,0.494-0.281,0.683c-0.188,0.189-0.418,0.284-0.691,0.284
			S107.017,21.004,106.823,20.814z"/>
		<path fill="#E11D39" d="M124.885,20.909c-0.23-0.056-0.418-0.161-0.562-0.315c-0.145-0.153-0.217-0.336-0.217-0.546
			c0-0.252,0.104-0.465,0.313-0.641c0.209-0.175,0.443-0.233,0.702-0.178c0.202,0.042,0.408,0.077,0.617,0.104
			c0.209,0.028,0.449,0.042,0.724,0.042c1.542,0,2.313-0.952,2.313-2.855v-6.237h-7.848c-0.26,0-0.479-0.08-0.66-0.241
			c-0.18-0.161-0.27-0.36-0.27-0.599s0.09-0.438,0.27-0.599c0.181-0.161,0.4-0.241,0.66-0.241h8.518c0.36,0,0.666,0.104,0.919,0.314
			c0.252,0.21,0.378,0.477,0.378,0.798v6.805c0,1.582-0.385,2.733-1.156,3.454c-0.771,0.722-1.813,1.082-3.124,1.082
			C125.916,21.057,125.39,21.007,124.885,20.909z M120.703,24.762c-0.195-0.189-0.293-0.416-0.293-0.682v-9.807
			c0-0.266,0.094-0.494,0.281-0.683c0.188-0.189,0.418-0.283,0.691-0.283c0.274,0,0.509,0.094,0.703,0.283
			c0.195,0.188,0.292,0.417,0.292,0.683v9.807c0,0.266-0.094,0.492-0.281,0.682c-0.187,0.189-0.418,0.283-0.691,0.283
			C121.13,25.045,120.896,24.952,120.703,24.762z"/>
		<path fill="#E11D39" d="M143.91,8.845c0.173,0.161,0.26,0.36,0.26,0.599s-0.087,0.438-0.26,0.599s-0.383,0.241-0.627,0.241h-0.973
			c-0.52,0.742-0.778,1.897-0.778,3.465v6.405c0,0.266-0.098,0.49-0.292,0.672c-0.195,0.182-0.43,0.273-0.703,0.273
			s-0.504-0.092-0.691-0.273s-0.281-0.406-0.281-0.672v-6.489c0-1.525,0.311-2.652,0.93-3.381h-6.551
			c-0.23,0-0.432-0.084-0.605-0.252c-0.172-0.168-0.259-0.364-0.259-0.588c0-0.238,0.087-0.438,0.259-0.599
			c0.174-0.161,0.375-0.241,0.605-0.241h9.34C143.527,8.604,143.737,8.684,143.91,8.845z"/>
		<path fill="#E11D39" d="M156.027,20.814c-0.194-0.188-0.291-0.416-0.291-0.683v-7.056c0-0.742-0.116-1.319-0.347-1.732
			s-0.604-0.707-1.124-0.882c-0.519-0.175-1.24-0.263-2.162-0.263c-1.268,0-2.753,0.154-4.453,0.462
			c-0.246,0.042-0.473-0.003-0.682-0.137c-0.209-0.133-0.334-0.318-0.378-0.557c-0.028-0.224,0.032-0.427,0.185-0.608
			c0.15-0.182,0.349-0.301,0.594-0.357c0.778-0.153,1.6-0.272,2.465-0.356s1.65-0.126,2.356-0.126c1.341,0,2.41,0.154,3.21,0.462
			c0.801,0.308,1.384,0.795,1.752,1.459c0.367,0.665,0.551,1.544,0.551,2.636v7.056c0,0.267-0.094,0.494-0.281,0.683
			c-0.188,0.189-0.418,0.284-0.691,0.284S156.222,21.004,156.027,20.814z M147.488,20.814c-0.195-0.188-0.292-0.416-0.292-0.683
			v-5.648c0-0.266,0.094-0.494,0.281-0.683c0.187-0.189,0.417-0.283,0.691-0.283s0.509,0.094,0.702,0.283
			c0.195,0.188,0.293,0.417,0.293,0.683v5.648c0,0.267-0.094,0.494-0.281,0.683c-0.188,0.189-0.418,0.284-0.691,0.284
			C147.917,21.099,147.682,21.004,147.488,20.814z"/>
		<path d="M47.994,29.741v10.041h-1.372V29.741H47.994z"/>
		<path d="M51.547,29.741v7.252h-1.372v-7.252H51.547z"/>
		<path d="M52.92,29.809c0.722-0.102,1.386-0.15,1.991-0.15c1.511,0,2.563,0.283,3.156,0.85c0.594,0.568,0.891,1.424,0.891,2.568
			v3.916h-1.337v-3.568c0-0.66-0.073-1.16-0.218-1.496c-0.146-0.338-0.424-0.611-0.837-0.82c-0.413-0.211-0.99-0.314-1.731-0.314
			c-0.502,0-1.103,0.045-1.802,0.137L52.92,29.809z"/>
		<path d="M67.586,36.993h-1.344v-3.93c0-0.533-0.061-0.953-0.183-1.258c-0.122-0.307-0.366-0.551-0.732-0.736
			c-0.366-0.184-0.892-0.275-1.577-0.275c-0.399,0-0.844,0.031-1.337,0.096v6.104h-1.344v-7.096
			c1.004-0.158,1.926-0.238,2.766-0.238c0.919,0,1.66,0.131,2.22,0.393s0.956,0.611,1.186,1.049s0.345,1.049,0.345,1.832V36.993z"/>
		<path d="M76.333,36.993h-1.661l-2.85-3.916c-0.441,0.232-0.702,0.701-0.781,1.408l-0.303,2.508h-1.394l0.303-2.508
			c0.141-1.168,0.629-1.955,1.464-2.365l-1.738-2.379h1.654l2.393,3.246c0.291-0.186,0.494-0.396,0.609-0.633
			c0.115-0.234,0.205-0.619,0.271-1.158l0.176-1.455h1.394L75.7,31.237c-0.075,0.643-0.224,1.17-0.447,1.582
			c-0.223,0.414-0.609,0.781-1.158,1.105L76.333,36.993z"/>
		<path d="M77.776,29.87c0.849-0.141,1.675-0.211,2.477-0.211c1.558,0,2.635,0.279,3.23,0.84s0.894,1.42,0.894,2.578v3.916h-1.345
			v-3.568c0-0.725-0.086-1.256-0.26-1.596s-0.473-0.598-0.897-0.773c-0.425-0.174-1.042-0.262-1.854-0.262
			c-0.638,0-1.349,0.063-2.132,0.191L77.776,29.87z M79.205,32.905v4.088h-1.344v-4.088H79.205z"/>
		<path d="M91.626,36.112l-1.295-6.371h1.414l1.105,5.967c0.797-0.305,1.297-0.744,1.498-1.316c0.202-0.57,0.303-1.289,0.303-2.156
			l0.07-2.494h1.359l-0.07,1.92c-0.038,0.926-0.079,1.574-0.124,1.949c-0.044,0.373-0.167,0.785-0.366,1.232
			c-0.199,0.449-0.491,0.84-0.876,1.17c-0.384,0.33-0.948,0.633-1.692,0.906s-1.805,0.521-3.185,0.744l-0.19-1.135
			C90.417,36.411,91.101,36.27,91.626,36.112z"/>
		<path d="M101.578,32.303v2.229l0.689,2.461h-1.316l-0.514-1.777c-0.577,0-1.059,0.34-1.443,1.02l-0.414,0.758h-1.373l0.592-1.121
			c0.352-0.664,0.76-1.102,1.225-1.309c0.464-0.207,0.867-0.311,1.21-0.311v-1.908c0-0.391-0.029-0.689-0.088-0.893
			c-0.06-0.201-0.188-0.365-0.391-0.488s-0.47-0.184-0.802-0.184c-0.287,0-0.543,0.021-0.768,0.068l-0.099-1.039
			c0.314-0.102,0.698-0.15,1.154-0.15c0.638,0,1.126,0.115,1.464,0.348s0.567,0.52,0.689,0.857
			C101.516,31.204,101.578,31.684,101.578,32.303z"/>
		<path d="M103.062,29.809c0.723-0.102,1.387-0.15,1.991-0.15c1.511,0,2.563,0.283,3.156,0.85c0.594,0.568,0.891,1.424,0.891,2.568
			v3.916h-1.337v-3.568c0-0.66-0.073-1.16-0.219-1.496c-0.146-0.338-0.424-0.611-0.838-0.82c-0.412-0.211-0.989-0.314-1.73-0.314
			c-0.502,0-1.103,0.045-1.802,0.137L103.062,29.809z"/>
		<path d="M111.88,29.741h4.138v1.805c0,0.51-0.05,0.924-0.147,1.24c-0.1,0.316-0.27,0.637-0.514,0.961l-0.381,0.492
			c-0.38,0.496-0.57,1.027-0.57,1.592v1.162h-1.344v-0.977c0-0.588,0.061-1.031,0.18-1.326c0.119-0.297,0.295-0.588,0.524-0.875
			l0.423-0.52c0.205-0.256,0.338-0.486,0.396-0.691s0.088-0.469,0.088-0.793v-0.977h-4.131v-3.863h1.338V29.741z"/>
		<path d="M128.404,36.993h-6.517v-7.096c1.004-0.158,1.926-0.238,2.766-0.238c0.919,0,1.659,0.131,2.22,0.393
			s0.957,0.611,1.187,1.049s0.345,1.049,0.345,1.832V36.993z M127.06,35.899v-2.836c0-0.533-0.062-0.953-0.184-1.258
			c-0.121-0.307-0.365-0.551-0.731-0.736c-0.366-0.184-0.892-0.275-1.577-0.275c-0.398,0-0.844,0.031-1.336,0.096v5.01H127.06z"/>
		<path d="M131.887,29.741v3.752h-1.372v-3.752H131.887z"/>
		<path d="M133.259,29.809c0.723-0.102,1.387-0.15,1.992-0.15c1.51,0,2.563,0.283,3.156,0.85c0.594,0.568,0.891,1.424,0.891,2.568
			v3.916h-1.338v-3.568c0-0.66-0.072-1.16-0.219-1.496c-0.145-0.338-0.424-0.611-0.837-0.82c-0.413-0.211-0.989-0.314-1.731-0.314
			c-0.502,0-1.102,0.045-1.801,0.137L133.259,29.809z"/>
		<path d="M142.036,32.768l-1.154-3.027h1.315l0.549,1.6c0.221-0.471,0.566-0.867,1.035-1.193s0.974-0.488,1.514-0.488
			c0.572,0,1.065,0.143,1.48,0.426c0.416,0.285,0.717,0.701,0.904,1.248s0.281,1.369,0.281,2.469v3.191h-3.85v-1.094h2.492v-2.125
			c0-0.803-0.027-1.387-0.081-1.754s-0.192-0.666-0.415-0.896c-0.223-0.229-0.504-0.344-0.842-0.344
			c-0.525,0-0.972,0.262-1.34,0.789c-0.369,0.525-0.682,1.439-0.939,2.738l-0.528,2.686h-1.358l0.592-2.83
			C141.748,33.895,141.862,33.43,142.036,32.768z"/>
		<path d="M151.445,29.741v3.752h-1.373v-3.752H151.445z"/>
		<path d="M158.658,29.741l-0.07,1.305c-0.023,0.434-0.074,0.783-0.151,1.049c-0.077,0.268-0.24,0.543-0.489,0.824
			c-0.248,0.283-0.645,0.576-1.189,0.883l1.598,2.42v0.771h-5.377v-1.094h3.752l-4.125-6.158h1.527l2.076,3.219
			c0.352-0.25,0.604-0.518,0.754-0.803c0.149-0.285,0.225-0.689,0.225-1.213l0.07-1.203H158.658z"/>
	</g>
</g>
</svg>
