<?xml version="1.0" encoding="utf-8"?>
<!-- Generator: Adobe Illustrator 15.0.0, SVG Export Plug-In . SVG Version: 6.00 Build 0)  -->
<!DOCTYPE svg PUBLIC "-//W3C//DTD SVG 1.1//EN" "http://www.w3.org/Graphics/SVG/1.1/DTD/svg11.dtd">
<svg version="1.1" id="שכבה_1" xmlns="http://www.w3.org/2000/svg" xmlns:xlink="http://www.w3.org/1999/xlink" x="0px" y="0px"
	 width="90px" height="70px" viewBox="0 0 90 70" enable-background="new 0 0 90 70" xml:space="preserve">
<g>
	<g>
		<path fill="#497CBE" d="M55.158,26.583c0.126,0.132,0.273,0.202,0.447,0.208h0.034c0.329,0.059,7.537-8.844,8.962-11.89
			c1.398-3,0.495-4.014-1.549-4.762c-0.443-0.158-0.904-0.242-1.353-0.242c-2.31,0-3.874,2.19-3.896,2.205
			c-2.077,2.541-3.425,9.01-3.483,9.419c-0.006,0.03-0.016,0.102-0.032,0.196C53.791,25.727,54.797,26.211,55.158,26.583z"/>
		<path fill="#497CBE" d="M24.317,36.927c-0.033,0.719-0.033,1.101,0.248,1.478c0.303,0.422,1.107,0.688,1.536,0.725h0.045
			c0.473,0,1.112-0.451,1.789-1.249l0.303-0.388c0.889-1.178,2.544-3.346,4.222-6.118l0.245-0.403
			c0.079-0.122,0.147-0.247,0.218-0.352c0.327-0.572,1.18-1.785,1.349-1.963c0.083-0.088,0.212-0.138,0.334-0.138
			c0.29,0,0.397,0.266,0.56,0.665c0.098,0.231,0.207,0.52,0.395,0.861c0.045,0.096,0.101,0.186,0.136,0.255
			c0.104,0.216,0.334,0.75,0.618,1.43c0.697,1.655,1.868,4.418,2.278,4.966l0.206,0.283c0.417,0.572,1.305,0.969,2.146,0.969l0,0
			c0.182,0,0.344-0.015,0.502-0.055c0.604-0.125,1.413-0.805,1.91-1.58c0.156-0.238,0.522-0.917,0.554-0.971l2.188-5.124
			c0.222-0.626,1.438-3.618,2.721-6.784c1.34-3.296,2.721-6.701,3.009-7.501c1.535-4.331,0.792-6.221,0.215-6.956
			c-0.431-0.545-1.027-0.827-1.743-0.827c-1.521,0-3.157,1.225-4.054,3.058c-0.021,0.041-0.104,0.188-0.237,0.425
			c-2.642,4.635-4.51,8.469-5.56,11.393l-0.76,1.995l-0.696-2.822c-0.653-4.403-2.729-4.914-4.238-4.914
			c-1.659,0-2.631,1.61-3.101,2.377l-0.116,0.184c-1.655,2.647-7.121,14.333-7.215,16.99L24.317,36.927z"/>
		<path fill="#497CBE" d="M80.427,18.65c-0.095-0.03-1.347-0.271-2.109-0.411l-0.386-0.069l0.504-0.455
			c1.068-0.876,4.669-3.939,6.256-6.944c0.192-0.29,0.338-0.586,0.426-0.919c0.893-2.248,0.481-4.049-1.205-5.371
			c-1.113-1.058-2.548-1.665-3.111-1.884c-1.306-0.43-2.491-0.521-3.265-0.521c-0.124,0-0.241,0.002-0.363,0.007
			c-2.133,0.076-5.634,1.651-6.683,2.77c-1.039,1.099-0.674,2.37-0.549,2.796c0.127,0.441,0.737,1.19,1.252,1.388
			c0.297,0.112,0.637,0.176,1.014,0.176c0.37,0,1.4-0.666,2.077-1.105c0.562-0.36,0.886-0.568,1.067-0.621
			c0.012-0.008,0.037-0.017,0.071-0.027c0.22-0.093,0.692-0.282,1.022-0.243c0.596,0.064,1.169,0.327,1.199,0.339
			c0.339,0.208,0.521,0.479,0.559,0.822c0.187,1.413-2.055,3.72-3.532,5.247l-0.297,0.31c-0.231,0.235-0.554,0.506-0.982,0.812
			c-0.327,0.302-0.616,0.524-0.826,0.667c-0.706,0.465-2.838,2.247-4.401,3.548c-0.71,0.599-1.328,1.111-1.631,1.354
			c-0.075,0.059-0.162,0.12-0.244,0.193c-0.784,0.597-2.112,1.598-1.563,2.755c0.23,0.514,0.861,1.113,1.857,1.113
			c0.109,0,0.234-0.01,0.355-0.025c0.004-0.003,3.64-1.045,6.561-1.045c0.445,0,0.865,0.025,1.227,0.076
			c1.349,0.139,2.97,0.838,2.973,3.426c0.01,1.426-0.395,2.271-0.799,3.007c-0.419,1.045-1.223,2.546-2.61,3.687l-0.23,0.195
			l-0.011-0.02c-0.116,0.102-0.288,0.241-0.497,0.399c-0.863,0.646-1.927,1.177-2.7,1.568c-0.164,0.081-0.314,0.152-0.448,0.228
			c-1.301,0.633-2.94,0.984-4.589,0.984c-5.754,0-8.401-3.355-9.526-4.785c-0.169-0.208-0.34-0.427-0.443-0.519
			c-2.332,2.32,0.028,6.23,0.523,6.998c0.763,1.157,4.05,4.16,10.078,4.16c0.937,0,1.919-0.078,2.897-0.225
			c0.253-0.04,0.506-0.091,0.789-0.157c2.438-0.442,4.396-1.176,5.606-1.712c0.253-0.137,0.579-0.288,0.932-0.458l0.076-0.033
			c0.636-0.304,1.347-0.646,1.868-0.974c0.085-0.063,0.143-0.118,0.158-0.133l0.158-0.152h0.121
			c4.025-2.646,6.528-6.364,7.641-11.37C88.008,21.595,81.709,19.091,80.427,18.65z"/>
		<path fill="#497CBE" d="M12.098,46.506c0,0-1.588,1.1-1.631,1.913c-0.078,1.363,1.522,2.552,3.585,2.655
			c0.663,0.028,1.842-0.2,1.842-0.2c17.63-7.583,49.015-3.218,49.015-3.218c-2.595-1.485-10.72-3.565-10.72-3.565
			C24.8,37.237,12.098,46.506,12.098,46.506z"/>
		<path fill="#497CBE" d="M10.937,28.013c0.037-0.019,0.188-0.073,0.396-0.154c0.364-0.159,0.854-0.431,1.364-0.714
			c0.994-0.545,2.104-1.159,2.942-1.34c0.286-0.063,0.57-0.096,0.854-0.096c0.15,0,0.299,0.013,0.443,0.029
			c1.382,0.178,2.017,1.78,1.951,2.879c-0.059,0.991-1.722,2.91-4.064,5.51c-0.916,1.029-1.784,1.991-2.243,2.617
			c-0.587,0.807-0.808,1.521-0.594,1.914c0.063,0.107,0.365,0.329,0.448,0.362c0.23,0.031,0.498,0.06,0.78,0.06
			c3.454,0,7.562-3.379,9.934-6.532l0.065-0.166c0.406-0.52,3.535-4.797,0.807-9.357c-0.021-0.05-0.063-0.086-0.086-0.142
			c-0.823-1.503-3.492-2.78-3.514-2.791c-0.635-0.248-1.313-0.463-2.02-0.623c-0.201-0.047-0.409-0.081-0.63-0.104
			c-1.55-0.201-3.116,0.086-4.915,0.886l-0.08,0.04c-0.566,0.259-5.548,2.587-5.843,5.011c-0.019,0.117-0.024,0.208-0.048,0.317
			c-0.049,0.535,0.025,1.012,0.229,1.402c0.265,0.531,0.734,0.91,1.43,1.144l0.037,0.007c0.171,0.03,0.324,0.056,0.47,0.074
			c0.204,0.028,0.401,0.037,0.588,0.037c0.668,0,1.06-0.165,1.25-0.248L10.937,28.013z"/>
	</g>
	<g>
		<path fill="#497CBE" d="M2.077,63.004l5.081-7.62H2.541v-1.29h6.563v0.915l-5.08,7.62h5.126v1.29H2.077V63.004z"/>
		<path fill="#497CBE" d="M10.824,54.949c-0.18-0.17-0.27-0.391-0.27-0.66c0-0.26,0.09-0.475,0.27-0.646
			c0.181-0.17,0.409-0.255,0.688-0.255s0.507,0.085,0.688,0.255c0.18,0.171,0.27,0.386,0.27,0.646c0,0.27-0.09,0.49-0.27,0.66
			c-0.181,0.17-0.409,0.255-0.688,0.255S11.004,55.119,10.824,54.949z M10.724,56.584h1.56v7.335h-1.56V56.584z"/>
		<path fill="#497CBE" d="M14.43,56.584h1.281l0.124,1.02h0.046c0.37-0.369,0.743-0.662,1.119-0.877s0.78-0.322,1.213-0.322
			c1.039,0,1.734,0.449,2.084,1.35c0.423-0.439,0.826-0.774,1.213-1.005c0.386-0.23,0.8-0.345,1.243-0.345
			c0.771,0,1.351,0.247,1.737,0.742c0.386,0.495,0.579,1.213,0.579,2.152v4.62h-1.56v-4.425c0-0.63-0.101-1.085-0.302-1.365
			c-0.2-0.28-0.522-0.42-0.965-0.42c-0.515,0-1.086,0.335-1.714,1.005v5.205h-1.56v-4.425c0-0.63-0.101-1.085-0.302-1.365
			c-0.2-0.28-0.522-0.42-0.965-0.42c-0.515,0-1.086,0.335-1.714,1.005v5.205h-1.56V56.584z"/>
		<path fill="#497CBE" d="M27.124,56.584h1.281l0.124,1.02h0.046c0.37-0.369,0.743-0.662,1.119-0.877s0.78-0.322,1.213-0.322
			c1.039,0,1.734,0.449,2.084,1.35c0.423-0.439,0.826-0.774,1.213-1.005c0.386-0.23,0.8-0.345,1.243-0.345
			c0.771,0,1.351,0.247,1.737,0.742c0.386,0.495,0.579,1.213,0.579,2.152v4.62h-1.56v-4.425c0-0.63-0.101-1.085-0.302-1.365
			c-0.2-0.28-0.522-0.42-0.965-0.42c-0.515,0-1.086,0.335-1.714,1.005v5.205h-1.56v-4.425c0-0.63-0.101-1.085-0.302-1.365
			c-0.2-0.28-0.522-0.42-0.965-0.42c-0.515,0-1.086,0.335-1.714,1.005v5.205h-1.56V56.584z"/>
		<path fill="#497CBE" d="M45.747,60.649h-4.988c0.072,0.739,0.332,1.302,0.78,1.688c0.447,0.385,0.99,0.577,1.629,0.577
			c0.607,0,1.21-0.185,1.807-0.555l0.541,0.96c-0.804,0.52-1.652,0.779-2.549,0.779c-0.689,0-1.313-0.155-1.868-0.465
			s-0.996-0.755-1.32-1.335s-0.486-1.26-0.486-2.04c0-0.77,0.162-1.447,0.486-2.032s0.749-1.035,1.274-1.351
			c0.524-0.314,1.086-0.472,1.683-0.472c0.979,0,1.734,0.313,2.271,0.938c0.535,0.625,0.803,1.468,0.803,2.527
			C45.808,60.149,45.788,60.409,45.747,60.649z M44.449,59.599c0-0.64-0.144-1.135-0.432-1.484
			c-0.289-0.351-0.706-0.525-1.251-0.525c-0.474,0-0.896,0.17-1.267,0.51c-0.37,0.341-0.607,0.84-0.71,1.5H44.449z"/>
		<path fill="#497CBE" d="M47.338,56.584h1.281l0.123,1.32h0.047c0.268-0.471,0.588-0.838,0.965-1.103
			c0.375-0.266,0.77-0.397,1.182-0.397c0.34,0,0.617,0.05,0.834,0.149l-0.279,1.32c-0.277-0.08-0.529-0.12-0.756-0.12
			c-0.34,0-0.674,0.128-1.004,0.383s-0.607,0.657-0.834,1.207v4.575h-1.559V56.584z"/>
		<path fill="#497CBE" d="M52.795,63.799c-0.199-0.2-0.301-0.455-0.301-0.765c0-0.311,0.102-0.567,0.301-0.772
			c0.201-0.205,0.451-0.308,0.75-0.308s0.549,0.103,0.748,0.308c0.201,0.205,0.303,0.462,0.303,0.772
			c0,0.31-0.102,0.564-0.303,0.765c-0.199,0.2-0.449,0.3-0.748,0.3S52.996,63.999,52.795,63.799z"/>
		<path fill="#497CBE" d="M57.775,63.642c-0.545-0.305-0.975-0.748-1.289-1.328c-0.314-0.579-0.471-1.265-0.471-2.055
			s0.17-1.475,0.51-2.055s0.791-1.025,1.357-1.335s1.184-0.465,1.854-0.465c0.824,0,1.561,0.279,2.209,0.84l-0.773,0.99
			c-0.227-0.19-0.447-0.335-0.664-0.436c-0.215-0.1-0.447-0.149-0.693-0.149c-0.648,0-1.178,0.239-1.584,0.72
			c-0.406,0.479-0.609,1.109-0.609,1.89s0.197,1.408,0.594,1.883s0.914,0.712,1.553,0.712c0.566,0,1.117-0.225,1.652-0.675
			l0.648,1.005c-0.34,0.301-0.723,0.528-1.15,0.683c-0.428,0.155-0.863,0.232-1.305,0.232C58.934,64.099,58.32,63.946,57.775,63.642
			z"/>
		<path fill="#497CBE" d="M64.662,63.634c-0.545-0.31-0.98-0.755-1.305-1.335s-0.486-1.26-0.486-2.04
			c0-0.79,0.162-1.475,0.486-2.055s0.758-1.025,1.297-1.335c0.541-0.31,1.131-0.465,1.77-0.465c0.637,0,1.227,0.155,1.768,0.465
			s0.973,0.755,1.297,1.335s0.486,1.265,0.486,2.055c0,0.78-0.162,1.46-0.486,2.04s-0.76,1.025-1.305,1.335s-1.133,0.465-1.76,0.465
			C65.795,64.099,65.209,63.943,64.662,63.634z M67.844,62.142c0.35-0.475,0.525-1.103,0.525-1.883s-0.178-1.41-0.533-1.89
			c-0.355-0.48-0.826-0.72-1.412-0.72c-0.588,0-1.059,0.239-1.414,0.72c-0.355,0.479-0.533,1.109-0.533,1.89
			s0.176,1.408,0.525,1.883s0.824,0.712,1.422,0.712C67.02,62.854,67.494,62.616,67.844,62.142z"/>
		<path fill="#497CBE" d="M71.695,63.799c-0.199-0.2-0.301-0.455-0.301-0.765c0-0.311,0.102-0.567,0.301-0.772
			c0.201-0.205,0.451-0.308,0.75-0.308s0.549,0.103,0.748,0.308c0.201,0.205,0.303,0.462,0.303,0.772
			c0,0.31-0.102,0.564-0.303,0.765c-0.199,0.2-0.449,0.3-0.748,0.3S71.896,63.999,71.695,63.799z"/>
		<path fill="#497CBE" d="M75.541,54.949c-0.18-0.17-0.27-0.391-0.27-0.66c0-0.26,0.09-0.475,0.27-0.646
			c0.182-0.17,0.41-0.255,0.688-0.255c0.279,0,0.508,0.085,0.688,0.255c0.18,0.171,0.27,0.386,0.27,0.646
			c0,0.27-0.09,0.49-0.27,0.66s-0.408,0.255-0.688,0.255C75.951,55.204,75.723,55.119,75.541,54.949z M75.441,56.584h1.561v7.335
			h-1.561V56.584z"/>
		<path fill="#497CBE" d="M79.518,63.619c-0.246-0.32-0.369-0.79-0.369-1.41v-8.925h1.559v9.015c0,0.19,0.035,0.33,0.107,0.42
			s0.16,0.135,0.264,0.135c0.092,0,0.186-0.01,0.277-0.029l0.201,1.14c-0.236,0.09-0.52,0.135-0.85,0.135
			C80.162,64.099,79.766,63.938,79.518,63.619z"/>
	</g>
</g>
</svg>
