<?xml version="1.0" encoding="utf-8"?>
<!-- Generator: Adobe Illustrator 15.0.0, SVG Export Plug-In . SVG Version: 6.00 Build 0)  -->
<!DOCTYPE svg PUBLIC "-//W3C//DTD SVG 1.1//EN" "http://www.w3.org/Graphics/SVG/1.1/DTD/svg11.dtd">
<svg version="1.1" id="שכבה_1" xmlns="http://www.w3.org/2000/svg" xmlns:xlink="http://www.w3.org/1999/xlink" x="0px" y="0px"
	 width="30px" height="30px" viewBox="0 0 30 30" enable-background="new 0 0 30 30" xml:space="preserve">
<g>
	<path fill-rule="evenodd" clip-rule="evenodd" fill="#497BBE" d="M3.873,16.293c-0.943,0.027-1.875-0.556-2.393-1.388
		c-0.756-1.218-0.604-2.89,0.355-3.929c0.962-1.031,2.519-1.196,3.651-0.388c1.141,0.813,1.606,2.417,1.075,3.775
		C6.094,15.56,5.065,16.261,3.873,16.293L3.873,16.293z"/>
	<path fill="#497BBE" d="M28.576,20.947c-0.345-0.24-0.7-0.451-1.066-0.626c-1.035-0.697-2.136-0.963-3.267-0.963
		c-2.757,0-5.702,1.495-8.416,1.606c-0.1,0.002-0.196,0.014-0.297,0.014c-2.951,0-5.682-1.832-8.384-1.832
		c-1.095,0-2.186,0.308-3.283,1.15c-0.449,0.232-0.888,0.518-1.316,0.862c-0.41-0.11-0.711-0.718-0.301-1.128
		c1.638-1.664,3.257-2.207,4.901-2.207c2.567,0,5.163,0.352,8.031,0.771c0.337,0.045,0.7-0.087,1.035-0.087
		c1.955,0,3.902,0.366,5.803-0.103c0.833-0.206,1.661-0.354,2.48-0.373c0.057,0,0.107-0.008,0.162-0.008
		c0.176,0,0.343,0.009,0.518,0.019c0.231,0.019,0.454,0.055,0.687,0.099c0.973,0.188,1.934,0.636,2.892,1.502
		C29.205,20.046,28.971,20.842,28.576,20.947z"/>
	<g>
		<polyline fill-rule="evenodd" clip-rule="evenodd" fill="#497BBE" points="6.356,18.818 14.552,5.5 23.53,9.902 23.139,11.162 
			15.824,8.881 13.513,12.458 26.943,18.818 		"/>
		<path fill="none" stroke="#497BBE" stroke-miterlimit="10" d="M28.351,24.301c-0.339-0.232-0.688-0.436-1.044-0.604
			c-1.022-0.672-2.1-0.919-3.213-0.919c-2.707,0-5.602,1.429-8.269,1.539c-0.095,0.001-0.191,0.006-0.286,0.006
			c-2.901,0-5.585-1.749-8.243-1.749c-1.069,0-2.137,0.295-3.219,1.096c-0.446,0.23-0.876,0.505-1.294,0.83"/>
	</g>
</g>
</svg>
