<?xml version="1.0" encoding="utf-8"?>
<!-- Generator: Adobe Illustrator 15.0.0, SVG Export Plug-In . SVG Version: 6.00 Build 0)  -->
<!DOCTYPE svg PUBLIC "-//W3C//DTD SVG 1.1//EN" "http://www.w3.org/Graphics/SVG/1.1/DTD/svg11.dtd">
<svg version="1.1" id="שכבה_1" xmlns="http://www.w3.org/2000/svg" xmlns:xlink="http://www.w3.org/1999/xlink" x="0px" y="0px"
	 width="30px" height="30px" viewBox="0 0 30 30" enable-background="new 0 0 30 30" xml:space="preserve">
<g>
	<path fill="#497BBE" d="M22.798,4.364c-0.037,0-0.066-0.001-0.108-0.001C22.731,4.363,22.761,4.364,22.798,4.364l-0.104-0.121
		H7.553H7.016L1.5,10.625l13.19,15.021L28.5,10.943L22.798,4.364z"/>
	<g>
		<line fill="#6D6E71" stroke="#FFFFFF" stroke-miterlimit="10" x1="1.5" y1="10.625" x2="28.5" y2="10.625"/>
		
			<line fill="#6D6E71" stroke="#FFFFFF" stroke-width="0.8" stroke-miterlimit="10" x1="21.156" y1="10.352" x2="14.923" y2="26.5"/>
		<line fill="#6D6E71" stroke="#FFFFFF" stroke-width="0.8" stroke-miterlimit="10" x1="8.786" y1="10.352" x2="15.02" y2="26.5"/>
		<line fill="#6D6E71" stroke="#FFFFFF" stroke-width="0.8" stroke-miterlimit="10" x1="6.236" y1="3.5" x2="8.786" y2="10.318"/>
		<line fill="#6D6E71" stroke="#FFFFFF" stroke-width="0.8" stroke-miterlimit="10" x1="13.28" y1="3.659" x2="9.05" y2="10.16"/>
		<path fill="#6D6E71" stroke="#FFFFFF" stroke-width="0.8" stroke-miterlimit="10" d="M23.501,4.455
			c-0.731,1.953-1.463,3.908-2.194,5.863"/>
		
			<line fill="#6D6E71" stroke="#FFFFFF" stroke-width="0.8" stroke-miterlimit="10" x1="16.815" y1="3.659" x2="21.042" y2="10.16"/>
	</g>
</g>
</svg>
