<?xml version="1.0" encoding="utf-8"?>
<!-- Generator: Adobe Illustrator 15.0.0, SVG Export Plug-In . SVG Version: 6.00 Build 0)  -->
<!DOCTYPE svg PUBLIC "-//W3C//DTD SVG 1.1//EN" "http://www.w3.org/Graphics/SVG/1.1/DTD/svg11.dtd">
<svg version="1.1" id="שכבה_1" xmlns="http://www.w3.org/2000/svg" xmlns:xlink="http://www.w3.org/1999/xlink" x="0px" y="0px"
	 width="170.041px" height="45px" viewBox="0 0 170.041 45" enable-background="new 0 0 170.041 45" xml:space="preserve">
<g>
	<path d="M66.639,20.317c-0.089-0.146-0.134-0.3-0.134-0.46c0-0.133,0.034-0.279,0.103-0.439l4.53-8.9h-6.259
		c-0.33,0-0.566-0.066-0.71-0.2c-0.144-0.133-0.216-0.353-0.216-0.659v-2.7c0-0.253,0.089-0.471,0.268-0.65
		c0.178-0.18,0.384-0.27,0.618-0.27c0.233,0,0.442,0.09,0.628,0.27c0.185,0.18,0.278,0.397,0.278,0.65v1.96h6.136
		c0.343,0,0.628,0.116,0.854,0.35s0.34,0.53,0.34,0.891c0,0.279-0.069,0.553-0.206,0.819l-4.633,9.28
		c-0.082,0.16-0.195,0.283-0.339,0.37c-0.145,0.087-0.306,0.13-0.484,0.13c-0.151,0-0.289-0.033-0.412-0.1
		C66.848,20.578,66.728,20.465,66.639,20.317z"/>
	<path d="M75.801,20.548c-0.186-0.18-0.278-0.396-0.278-0.65V9.758c0-0.253,0.089-0.47,0.268-0.65c0.178-0.18,0.398-0.27,0.659-0.27
		s0.484,0.09,0.669,0.27c0.185,0.181,0.278,0.397,0.278,0.65v10.14c0,0.254-0.089,0.471-0.268,0.65
		c-0.179,0.18-0.398,0.27-0.659,0.27S75.987,20.728,75.801,20.548z"/>
	<path d="M83.872,9.008c0.419,0.127,0.775,0.42,1.07,0.88s0.443,1.157,0.443,2.09v7.92c0,0.254-0.093,0.471-0.277,0.65
		c-0.186,0.18-0.409,0.27-0.67,0.27s-0.48-0.09-0.658-0.27c-0.18-0.18-0.268-0.396-0.268-0.65v-1.319
		c-0.481,0.613-0.992,1.133-1.535,1.56c-0.542,0.427-1.129,0.64-1.76,0.64c-0.289,0-0.532-0.076-0.731-0.229
		c-0.199-0.153-0.299-0.37-0.299-0.65c0-0.213,0.072-0.399,0.216-0.56s0.333-0.253,0.566-0.28c0.769-0.08,1.44-0.313,2.018-0.7
		c0.577-0.386,1.085-0.92,1.524-1.6v-4.92c0-0.587-0.097-0.98-0.289-1.18c-0.192-0.2-0.501-0.301-0.926-0.301
		c-0.152,0-0.348,0.027-0.588,0.08c-0.24,0.054-0.456,0.12-0.648,0.2c-0.083,0.027-0.158,0.04-0.227,0.04
		c-0.165,0-0.319-0.066-0.463-0.2c-0.144-0.133-0.216-0.313-0.216-0.54c0-0.333,0.151-0.573,0.453-0.72
		c0.219-0.106,0.501-0.2,0.844-0.28c0.343-0.08,0.651-0.12,0.927-0.12C82.956,8.817,83.454,8.881,83.872,9.008z"/>
	<path d="M99.325,14.918c0,1.854-0.461,3.316-1.38,4.39s-2.285,1.61-4.097,1.61c-1.813,0-3.172-0.533-4.077-1.601
		c-0.906-1.066-1.358-2.533-1.358-4.399c0-0.707,0.085-1.453,0.257-2.24c0.171-0.786,0.415-1.507,0.731-2.16h-0.824
		c-0.22,0-0.412-0.08-0.576-0.24c-0.165-0.159-0.248-0.346-0.248-0.56c0-0.227,0.083-0.417,0.248-0.57
		c0.164-0.152,0.356-0.229,0.576-0.229h5.683C97.637,8.918,99.325,10.918,99.325,14.918z M97.472,14.918
		c0-1.493-0.233-2.601-0.699-3.32c-0.467-0.72-1.305-1.08-2.513-1.08h-3.089c-0.301,0.561-0.527,1.233-0.679,2.021
		c-0.151,0.786-0.227,1.58-0.227,2.38c0,1.453,0.288,2.554,0.864,3.3c0.577,0.747,1.482,1.12,2.719,1.12
		C96.264,19.338,97.472,17.864,97.472,14.918z"/>
	<path d="M110.31,20.548c-0.186-0.18-0.278-0.396-0.278-0.65v-6.72c0-0.706-0.11-1.257-0.329-1.65
		c-0.221-0.393-0.576-0.673-1.07-0.84c-0.495-0.166-1.182-0.25-2.06-0.25c-1.208,0-2.622,0.147-4.241,0.44
		c-0.234,0.04-0.45-0.003-0.648-0.13c-0.199-0.127-0.32-0.304-0.361-0.53c-0.027-0.213,0.031-0.406,0.176-0.58
		c0.145-0.173,0.332-0.286,0.566-0.34c0.74-0.146,1.523-0.26,2.347-0.34s1.571-0.12,2.244-0.12c1.276,0,2.296,0.146,3.058,0.439
		c0.762,0.294,1.318,0.757,1.668,1.391c0.35,0.633,0.525,1.47,0.525,2.51v6.72c0,0.254-0.09,0.471-0.268,0.65
		c-0.18,0.18-0.398,0.27-0.659,0.27S110.495,20.728,110.31,20.548z M102.177,20.548c-0.186-0.18-0.278-0.396-0.278-0.65v-5.38
		c0-0.253,0.089-0.47,0.268-0.649c0.179-0.181,0.397-0.271,0.659-0.271c0.26,0,0.483,0.09,0.669,0.271
		c0.185,0.18,0.278,0.396,0.278,0.649v5.38c0,0.254-0.09,0.471-0.268,0.65c-0.18,0.18-0.398,0.27-0.66,0.27
		C102.585,20.817,102.362,20.728,102.177,20.548z"/>
	<path d="M120.13,20.548c-0.186-0.18-0.277-0.396-0.277-0.65V9.758c0-0.253,0.088-0.47,0.268-0.65c0.178-0.18,0.397-0.27,0.658-0.27
		s0.484,0.09,0.67,0.27c0.185,0.181,0.277,0.397,0.277,0.65v10.14c0,0.254-0.09,0.471-0.268,0.65c-0.179,0.18-0.398,0.27-0.659,0.27
		S120.315,20.728,120.13,20.548z"/>
	<path d="M134.779,9.908c0.714,0.659,1.071,1.75,1.071,3.27v6.72c0,0.254-0.09,0.471-0.268,0.65c-0.18,0.18-0.398,0.27-0.66,0.27
		c-0.26,0-0.483-0.09-0.668-0.27c-0.186-0.18-0.279-0.396-0.279-0.65v-6.72c0-1.013-0.191-1.71-0.576-2.09s-0.926-0.57-1.626-0.57
		h-3.418c-0.179,0.414-0.288,0.857-0.329,1.33c-0.041,0.474-0.063,1.09-0.063,1.851v6.22c0,0.227-0.082,0.417-0.246,0.569
		c-0.166,0.154-0.365,0.23-0.598,0.23h-2.594c-0.221,0-0.412-0.08-0.577-0.24s-0.247-0.347-0.247-0.56
		c0-0.227,0.082-0.417,0.247-0.57s0.356-0.229,0.577-0.229h1.564v-5.5c0-1.307,0.178-2.341,0.535-3.101h-1.133
		c-0.247,0-0.457-0.076-0.628-0.229c-0.172-0.153-0.257-0.344-0.257-0.57s0.085-0.417,0.257-0.57
		c0.171-0.152,0.381-0.229,0.628-0.229h6.28C133.063,8.918,134.065,9.248,134.779,9.908z"/>
	<path d="M147.391,20.548c-0.185-0.18-0.278-0.396-0.278-0.65v-6.72c0-0.706-0.109-1.257-0.329-1.65
		c-0.22-0.393-0.576-0.673-1.07-0.84c-0.495-0.166-1.181-0.25-2.06-0.25c-1.207,0-2.621,0.147-4.241,0.44
		c-0.233,0.04-0.45-0.003-0.648-0.13c-0.199-0.127-0.319-0.304-0.36-0.53c-0.027-0.213,0.031-0.406,0.175-0.58
		c0.145-0.173,0.333-0.286,0.566-0.34c0.741-0.146,1.523-0.26,2.347-0.34c0.824-0.08,1.572-0.12,2.244-0.12
		c1.277,0,2.297,0.146,3.059,0.439c0.762,0.294,1.317,0.757,1.668,1.391c0.35,0.633,0.524,1.47,0.524,2.51v6.72
		c0,0.254-0.089,0.471-0.268,0.65s-0.398,0.27-0.659,0.27S147.576,20.728,147.391,20.548z M139.258,20.548
		c-0.186-0.18-0.278-0.396-0.278-0.65v-5.38c0-0.253,0.09-0.47,0.268-0.649c0.179-0.181,0.398-0.271,0.659-0.271
		s0.483,0.09,0.669,0.271c0.186,0.18,0.278,0.396,0.278,0.649v5.38c0,0.254-0.089,0.471-0.268,0.65s-0.398,0.27-0.659,0.27
		S139.443,20.728,139.258,20.548z"/>
	<path d="M45.047,29.594c0.849-0.141,1.675-0.211,2.477-0.211c1.558,0,2.634,0.279,3.23,0.84c0.596,0.561,0.894,1.42,0.894,2.578
		v3.916h-1.344v-3.568c0-0.725-0.087-1.256-0.26-1.596c-0.174-0.34-0.473-0.598-0.897-0.773c-0.424-0.174-1.042-0.262-1.854-0.262
		c-0.638,0-1.349,0.063-2.132,0.191L45.047,29.594z M46.476,32.629v4.088h-1.344v-4.088H46.476z"/>
	<path d="M60.276,36.717h-1.344v-3.93c0-0.533-0.061-0.953-0.183-1.258c-0.122-0.307-0.366-0.551-0.732-0.736
		c-0.366-0.184-0.892-0.275-1.577-0.275c-0.399,0-0.844,0.031-1.337,0.096v6.104H53.76v-7.096c1.004-0.158,1.926-0.238,2.766-0.238
		c0.919,0,1.66,0.131,2.22,0.393s0.956,0.611,1.186,1.049s0.345,1.049,0.345,1.832V36.717z"/>
	<path d="M63.76,29.465v7.252h-1.372v-7.252H63.76z"/>
	<path d="M65.836,29.465h1.344v3.766c0,1.072,0.203,1.777,0.608,2.119s0.86,0.514,1.362,0.514c0.535,0,0.958-0.121,1.271-0.363
		c0.312-0.24,0.515-0.555,0.608-0.943c0.094-0.387,0.141-0.908,0.141-1.564v-0.924c0-1.061-0.317-1.592-0.95-1.592
		c-0.446,0-0.854,0.24-1.225,0.725l-0.422-0.67c0.507-0.813,1.152-1.217,1.936-1.217c0.657,0,1.154,0.25,1.492,0.752
		c0.338,0.5,0.507,1.234,0.507,2.201v0.52c0,0.938-0.093,1.672-0.278,2.201c-0.186,0.527-0.54,0.982-1.063,1.359
		c-0.523,0.379-1.195,0.568-2.016,0.568c-0.723,0-1.35-0.174-1.882-0.52c-0.533-0.348-0.904-0.785-1.116-1.313
		c-0.211-0.529-0.316-1.268-0.316-2.215V29.465z"/>
	<path d="M79.658,35.624h1.189v1.094h-7.143v-1.094h4.609v-2.475c0-0.674-0.078-1.182-0.232-1.521
		c-0.155-0.338-0.435-0.609-0.841-0.809c-0.406-0.201-1.038-0.301-1.896-0.301c-0.305,0-0.777,0.031-1.415,0.096l-0.113-1.08
		c0.633-0.102,1.307-0.15,2.02-0.15c1.342,0,2.314,0.281,2.917,0.848c0.603,0.564,0.904,1.422,0.904,2.57V35.624z"/>
	<path d="M83.626,29.465v7.252h-1.371v-7.252H83.626z"/>
	<path d="M89.777,29.594c0.849-0.141,1.675-0.211,2.478-0.211c1.557,0,2.634,0.279,3.23,0.84c0.596,0.561,0.893,1.42,0.893,2.578
		v3.916h-1.344v-3.568c0-0.725-0.087-1.256-0.26-1.596c-0.174-0.34-0.473-0.598-0.898-0.773c-0.424-0.174-1.042-0.262-1.854-0.262
		c-0.639,0-1.35,0.063-2.133,0.191L89.777,29.594z M91.206,32.629v4.088h-1.344v-4.088H91.206z"/>
	<path d="M101.425,36.717h-3.604v-1.094h2.259v-3.555c0-0.391-0.03-0.689-0.091-0.893c-0.062-0.201-0.191-0.365-0.391-0.488
		c-0.2-0.123-0.467-0.184-0.799-0.184c-0.287,0-0.543,0.021-0.768,0.068l-0.099-1.039c0.314-0.102,0.699-0.15,1.154-0.15
		c0.638,0,1.126,0.115,1.464,0.348s0.567,0.52,0.689,0.857c0.122,0.34,0.184,0.82,0.184,1.439V36.717z"/>
	<path d="M103.536,29.594c0.849-0.141,1.674-0.211,2.477-0.211c1.558,0,2.635,0.279,3.23,0.84s0.894,1.42,0.894,2.578v3.916h-1.345
		v-3.568c0-0.725-0.086-1.256-0.26-1.596s-0.473-0.598-0.897-0.773c-0.425-0.174-1.042-0.262-1.854-0.262
		c-0.638,0-1.349,0.063-2.132,0.191L103.536,29.594z M104.964,32.629v4.088h-1.344v-4.088H104.964z"/>
	<path d="M112.874,32.493l-1.154-3.027h1.316l0.549,1.6c0.221-0.471,0.565-0.867,1.035-1.193c0.469-0.326,0.973-0.488,1.513-0.488
		c0.572,0,1.065,0.143,1.481,0.426c0.415,0.285,0.717,0.701,0.904,1.248s0.281,1.369,0.281,2.469v3.191h-3.85v-1.094h2.492v-2.125
		c0-0.803-0.027-1.387-0.082-1.754c-0.054-0.367-0.191-0.666-0.415-0.896c-0.223-0.229-0.503-0.344-0.841-0.344
		c-0.525,0-0.973,0.262-1.34,0.789c-0.369,0.525-0.682,1.439-0.94,2.738l-0.528,2.686h-1.357l0.591-2.83
		C112.586,33.62,112.7,33.155,112.874,32.493z"/>
	<path d="M124.88,29.594c0.85-0.141,1.676-0.211,2.478-0.211c1.558,0,2.634,0.279,3.23,0.84c0.596,0.561,0.894,1.42,0.894,2.578
		v3.916h-1.344v-3.568c0-0.725-0.088-1.256-0.261-1.596c-0.174-0.34-0.473-0.598-0.897-0.773c-0.424-0.174-1.043-0.262-1.854-0.262
		c-0.639,0-1.35,0.063-2.133,0.191L124.88,29.594z M126.31,32.629v4.088h-1.345v-4.088H126.31z"/>
	<path d="M134.571,29.465l0.027,1.176c0.029,1.207,0.082,2.043,0.162,2.508c0.498,0,0.945-0.121,1.344-0.361
		c0.399-0.242,0.599-0.699,0.599-1.375l0.147-1.947h1.352l-0.169,2.283c-0.028,0.387-0.073,0.682-0.134,0.881
		c-0.061,0.201-0.186,0.412-0.377,0.637c-0.189,0.223-0.49,0.418-0.9,0.584s-0.963,0.277-1.657,0.332
		c0.118,0.492,0.39,0.887,0.816,1.182c0.427,0.297,0.952,0.445,1.577,0.445c0.576,0,1.071-0.135,1.484-0.4
		c0.412-0.268,0.718-0.611,0.915-1.033c0.196-0.42,0.328-1.021,0.394-1.801l0.303-3.109h1.352l-0.254,2.686
		c-0.098,1.008-0.273,1.846-0.527,2.516s-0.693,1.213-1.32,1.627c-0.625,0.416-1.434,0.623-2.424,0.623
		c-0.877,0-1.613-0.207-2.206-0.619c-0.594-0.412-1.037-1.002-1.33-1.768c-0.294-0.766-0.44-1.785-0.44-3.063l-0.098-2.002H134.571z
		"/>
	<path d="M143.368,29.704c0.812-0.24,1.66-0.361,2.547-0.361c1.094,0,2.006,0.313,2.738,0.936c0.731,0.625,1.098,1.529,1.098,2.715
		c0,1.17-0.375,2.104-1.126,2.795c-0.751,0.693-1.798,1.039-3.139,1.039c-0.915,0-1.638-0.162-2.168-0.484l0.323-1.08
		c0.461,0.287,1.045,0.43,1.753,0.43c0.802,0,1.493-0.223,2.073-0.666c0.578-0.445,0.869-1.113,0.869-2.006
		c0-0.785-0.229-1.414-0.684-1.891s-1.063-0.715-1.822-0.715c-0.395,0-0.783,0.043-1.168,0.131v1.326c0,0.561,0.288,0.84,0.865,0.84
		c0.234,0,0.432-0.027,0.592-0.082l0.141,0.951c-0.272,0.113-0.59,0.17-0.951,0.17c-0.609,0-1.086-0.16-1.428-0.482
		c-0.343-0.32-0.514-0.795-0.514-1.424V29.704z"/>
	<path d="M152.847,29.465v7.252h-1.372v-7.252H152.847z"/>
	<path d="M161.546,36.717h-1.345v-3.93c0-0.533-0.062-0.953-0.183-1.258c-0.122-0.307-0.366-0.551-0.732-0.736
		c-0.365-0.184-0.891-0.275-1.576-0.275c-0.398,0-0.844,0.031-1.337,0.096v6.104h-1.345v-7.096c1.004-0.158,1.926-0.238,2.766-0.238
		c0.92,0,1.66,0.131,2.221,0.393s0.956,0.611,1.186,1.049c0.23,0.438,0.346,1.049,0.346,1.832V36.717z"/>
	<path d="M164.325,29.465h4.139v1.805c0,0.51-0.05,0.924-0.148,1.24s-0.27,0.637-0.514,0.961l-0.38,0.492
		c-0.38,0.496-0.57,1.027-0.57,1.592v1.162h-1.344v-0.977c0-0.588,0.06-1.031,0.179-1.326c0.12-0.297,0.295-0.588,0.525-0.875
		l0.422-0.52c0.206-0.256,0.339-0.486,0.397-0.691s0.088-0.469,0.088-0.793v-0.977h-4.131v-3.863h1.337V29.465z"/>
</g>
<path fill="#5E449B" d="M42.612,22.502c0,11.6-9.399,20.999-21,20.999c-11.6,0-21-9.398-21-20.999c0-11.602,9.4-21.001,21-21.001
	C33.213,1.5,42.612,10.901,42.612,22.502z"/>
<g>
	<path fill="#FFFFFF" d="M29.33,20.888c-0.147-0.843-0.532-1.479-0.857-1.422c-0.183,0.032-0.311,0.275-0.361,0.63
		c-0.047,0.327-0.295,0.588-0.621,0.644l-1.05,0.182c-0.169,0.03-0.334-0.069-0.393-0.23c-0.175-0.487-0.435-0.935-0.762-1.324
		c-0.082-0.099-0.104-0.232-0.063-0.348c0.014-0.039,0.035-0.075,0.063-0.108l0.688-0.816c0.212-0.253,0.563-0.335,0.869-0.211
		c0.332,0.137,0.605,0.15,0.726,0.006c0.214-0.253-0.142-0.907-0.795-1.457c-0.653-0.55-1.356-0.791-1.571-0.538
		c-0.118,0.143-0.061,0.409,0.127,0.712c0.174,0.282,0.154,0.642-0.06,0.895l-0.687,0.814c-0.111,0.133-0.301,0.163-0.45,0.077
		c-0.437-0.255-0.922-0.436-1.438-0.527c-0.167-0.03-0.289-0.177-0.289-0.348l0.003-1.066c0.001-0.331,0.215-0.62,0.531-0.721
		c0.341-0.109,0.559-0.275,0.559-0.461c0.001-0.333-0.692-0.604-1.546-0.606c-0.854-0.002-1.547,0.266-1.549,0.599
		c-0.001,0.186,0.217,0.353,0.558,0.464c0.258,0.084,0.45,0.298,0.509,0.556c0.012,0.054,0.018,0.11,0.018,0.167l-0.002,1.066
		c-0.001,0.171-0.125,0.317-0.293,0.347c-0.516,0.088-1.001,0.267-1.44,0.519c-0.15,0.086-0.338,0.054-0.449-0.079l-0.684-0.818
		c-0.211-0.253-0.232-0.612-0.058-0.892c0.192-0.304,0.252-0.57,0.133-0.714c-0.213-0.254-0.916-0.017-1.573,0.53
		c-0.656,0.547-1.016,1.198-0.803,1.453c0.119,0.144,0.393,0.132,0.726-0.002c0.306-0.123,0.656-0.039,0.868,0.216l0.684,0.819
		c0.11,0.132,0.108,0.323-0.004,0.456c-0.328,0.388-0.589,0.833-0.769,1.321c-0.059,0.161-0.224,0.258-0.394,0.228l-1.049-0.188
		c-0.324-0.057-0.573-0.32-0.617-0.646c-0.048-0.355-0.174-0.599-0.357-0.632c-0.328-0.059-0.715,0.576-0.866,1.418
		c-0.15,0.841-0.006,1.57,0.32,1.629c0.183,0.033,0.386-0.152,0.555-0.469c0.154-0.291,0.478-0.451,0.804-0.394l1.049,0.188
		c0.171,0.031,0.292,0.18,0.292,0.353v0.003c-0.001,0.527,0.09,1.033,0.26,1.5c0.059,0.163-0.004,0.343-0.154,0.43l-0.925,0.53
		c-0.286,0.165-0.646,0.123-0.889-0.1c-0.266-0.24-0.518-0.346-0.68-0.253c-0.287,0.165-0.178,0.899,0.249,1.641
		c0.425,0.742,1.003,1.207,1.292,1.042c0.161-0.092,0.196-0.363,0.123-0.716c-0.069-0.321,0.076-0.651,0.362-0.816l0.927-0.531
		c0.148-0.085,0.337-0.049,0.448,0.083c0.328,0.393,0.723,0.727,1.167,0.985c0.148,0.087,0.215,0.267,0.156,0.428l-0.368,1.001
		c-0.113,0.31-0.414,0.509-0.744,0.495c-0.357-0.014-0.621,0.068-0.685,0.242c-0.112,0.313,0.445,0.804,1.247,1.1
		c0.803,0.293,1.545,0.278,1.66-0.033c0.063-0.175-0.083-0.405-0.366-0.628c-0.259-0.202-0.36-0.549-0.248-0.858l0.368-1.001
		c0.059-0.162,0.227-0.256,0.397-0.225c0.248,0.045,0.503,0.067,0.764,0.068c0.26,0.001,0.515-0.021,0.763-0.064
		c0.17-0.029,0.337,0.064,0.395,0.227l0.364,1.003c0.11,0.311,0.008,0.655-0.252,0.857c-0.285,0.22-0.433,0.45-0.37,0.625
		c0.113,0.313,0.856,0.332,1.66,0.041c0.804-0.292,1.364-0.778,1.25-1.092c-0.063-0.175-0.323-0.258-0.683-0.246
		c-0.33,0.012-0.628-0.188-0.741-0.498l-0.362-1.003c-0.059-0.161,0.009-0.341,0.159-0.429c0.446-0.254,0.843-0.587,1.172-0.979
		c0.111-0.131,0.3-0.166,0.45-0.08l0.922,0.536c0.284,0.167,0.429,0.497,0.358,0.819c-0.076,0.351-0.041,0.622,0.121,0.716
		c0.286,0.166,0.868-0.297,1.297-1.036c0.428-0.738,0.544-1.473,0.255-1.64c-0.159-0.094-0.413,0.011-0.68,0.251
		c-0.245,0.22-0.604,0.259-0.889,0.094l-0.922-0.535c-0.151-0.087-0.212-0.268-0.153-0.43c0.172-0.467,0.267-0.973,0.268-1.499
		v-0.003c0.001-0.174,0.123-0.322,0.293-0.352l1.05-0.183c0.327-0.056,0.647,0.106,0.802,0.398c0.166,0.318,0.37,0.503,0.551,0.472
		C29.329,22.458,29.477,21.73,29.33,20.888"/>
	<path fill="#FFFFFF" d="M18.695,15.88c0.212,0.255-0.146,0.905-0.803,1.453c-0.655,0.547-1.359,0.784-1.573,0.529
		c-0.213-0.255,0.146-0.905,0.803-1.453C17.779,15.862,18.482,15.625,18.695,15.88"/>
	<path fill="#FFFFFF" d="M17.811,16.244c0.043,0.053-0.126,0.265-0.378,0.478c-0.252,0.209-0.494,0.338-0.537,0.286
		c-0.043-0.052,0.125-0.266,0.377-0.477C17.527,16.32,17.766,16.191,17.811,16.244"/>
	<path fill="#FFFFFF" d="M15.408,19.434c0.326,0.059,0.469,0.787,0.318,1.629c-0.15,0.839-0.538,1.475-0.864,1.417
		c-0.326-0.059-0.47-0.788-0.32-1.629C14.693,20.009,15.081,19.374,15.408,19.434"/>
	<path fill="#FFFFFF" d="M29.001,22.516c-0.328,0.057-0.711-0.58-0.858-1.422c-0.145-0.841,0.001-1.57,0.33-1.626
		c0.326-0.057,0.71,0.579,0.857,1.421C29.477,21.73,29.329,22.458,29.001,22.516"/>
	<path fill="#FFFFFF" d="M29.128,21.567c-0.067,0.011-0.169-0.243-0.225-0.566c-0.056-0.325-0.046-0.598,0.021-0.609
		c0.066-0.011,0.166,0.243,0.224,0.566C29.205,21.282,29.195,21.555,29.128,21.567"/>
	<path fill="#FFFFFF" d="M27.568,17.891c-0.215,0.254-0.917,0.013-1.57-0.537c-0.654-0.551-1.01-1.204-0.796-1.458
		c0.215-0.253,0.918-0.012,1.572,0.538C27.426,16.983,27.782,17.637,27.568,17.891"/>
	<path fill="#FFFFFF" d="M27.056,17.084c-0.044,0.052-0.284-0.078-0.536-0.29c-0.251-0.212-0.419-0.427-0.375-0.479
		c0.044-0.052,0.284,0.077,0.535,0.29C26.931,16.816,27.099,17.031,27.056,17.084"/>
	<path fill="#FFFFFF" d="M24.807,20.981c-0.001,0.42-0.398,0.76-0.887,0.759c-0.49-0.001-0.886-0.343-0.884-0.764
		c0.001-0.42,0.398-0.76,0.888-0.759C24.413,20.219,24.808,20.561,24.807,20.981"/>
	<path fill="#FFFFFF" d="M20.651,22.809c-0.001,0.372-0.352,0.671-0.784,0.67s-0.782-0.304-0.781-0.674
		c0.001-0.372,0.352-0.671,0.785-0.671C20.302,22.135,20.652,22.438,20.651,22.809"/>
	<path fill="#FFFFFF" d="M25.041,23.492c-0.001,0.222-0.21,0.402-0.468,0.401c-0.258-0.001-0.467-0.182-0.466-0.403
		c0.001-0.221,0.209-0.4,0.468-0.4C24.833,23.09,25.042,23.271,25.041,23.492"/>
	<path fill="#FFFFFF" d="M20.171,20.208c-0.001,0.222-0.21,0.401-0.467,0.4c-0.259,0-0.467-0.181-0.467-0.403
		c0-0.222,0.21-0.401,0.468-0.4C19.964,19.806,20.172,19.985,20.171,20.208"/>
	<path fill="#FFFFFF" d="M22.083,20.701c0,0.221-0.209,0.401-0.469,0.4c-0.257-0.001-0.465-0.182-0.465-0.403
		c0.001-0.223,0.209-0.401,0.467-0.401C21.876,20.298,22.083,20.478,22.083,20.701"/>
	<path fill="#FFFFFF" d="M22.88,22.815c-0.001,0.149-0.142,0.271-0.314,0.271c-0.175-0.001-0.315-0.123-0.315-0.272
		s0.142-0.27,0.316-0.27C22.741,22.544,22.88,22.665,22.88,22.815"/>
	<path fill="#FFFFFF" d="M22.717,19.178c0,0.15-0.141,0.27-0.315,0.269c-0.173,0-0.315-0.121-0.315-0.271
		c0-0.149,0.142-0.27,0.316-0.27C22.577,18.907,22.717,19.029,22.717,19.178"/>
	<path fill="#FFFFFF" d="M18.743,21.364c0,0.149-0.142,0.27-0.314,0.27c-0.174,0-0.314-0.122-0.314-0.271
		c0.002-0.149,0.142-0.271,0.315-0.27C18.603,21.093,18.744,21.214,18.743,21.364"/>
	<defs>
		<filter id="Adobe_OpacityMaskFilter" filterUnits="userSpaceOnUse" x="18.42" y="18.508" width="7.028" height="6.082">
			<feFlood  style="flood-color:white;flood-opacity:1" result="back"/>
			<feBlend  in="SourceGraphic" in2="back" mode="normal"/>
		</filter>
	</defs>
	<mask maskUnits="userSpaceOnUse" x="18.42" y="18.508" width="7.028" height="6.082" id="SVGID_1_">
		<g filter="url(#Adobe_OpacityMaskFilter)">
			<g enable-background="new    ">
				<g>
					<defs>
						<path id="SVGID_2_" d="M25.441,21.558c-0.004,1.676-1.577,3.027-3.514,3.023c-1.938-0.006-3.503-1.367-3.499-3.042
							c0.004-1.675,1.577-3.028,3.515-3.023C23.878,18.522,25.445,19.883,25.441,21.558"/>
					</defs>
					<clipPath id="SVGID_3_">
						<use xlink:href="#SVGID_2_"  overflow="visible"/>
					</clipPath>
					<defs>
						<filter id="Adobe_OpacityMaskFilter_1_" filterUnits="userSpaceOnUse" x="18.42" y="18.508" width="7.028" height="6.082">
							<feFlood  style="flood-color:white;flood-opacity:1" result="back"/>
							<feBlend  in="SourceGraphic" in2="back" mode="normal"/>
						</filter>
					</defs>
					<mask maskUnits="userSpaceOnUse" x="18.42" y="18.508" width="7.028" height="6.082" id="SVGID_1_">
						<g filter="url(#Adobe_OpacityMaskFilter_1_)">
							<g enable-background="new    ">
							</g>
						</g>
					</mask>
					
						<linearGradient id="SVGID_4_" gradientUnits="userSpaceOnUse" x1="-255.6836" y1="451.4341" x2="-255.2433" y2="451.4341" gradientTransform="matrix(-0.0336 13.209 13.209 0.0336 -5949.6445 3379.8818)">
						<stop  offset="0" style="stop-color:#FFFFFF"/>
						<stop  offset="1" style="stop-color:#000000"/>
					</linearGradient>
					<polygon clip-path="url(#SVGID_3_)" mask="url(#SVGID_1_)" fill="url(#SVGID_4_)" points="25.449,18.525 25.433,24.589 
						18.42,24.572 18.436,18.508 					"/>
				</g>
			</g>
		</g>
	</mask>
	<g opacity="0.5">
		<g>
			<defs>
				
					<rect id="SVGID_5_" x="18.428" y="18.517" transform="matrix(-1 -0.0025 0.0025 -1 43.8151 43.1521)" width="7.013" height="6.064"/>
			</defs>
			<clipPath id="SVGID_6_">
				<use xlink:href="#SVGID_5_"  overflow="visible"/>
			</clipPath>
			<path clip-path="url(#SVGID_6_)" fill="#FFFFFF" d="M25.441,21.558c-0.004,1.676-1.577,3.028-3.514,3.023
				c-1.937-0.005-3.502-1.367-3.498-3.042c0.004-1.675,1.576-3.028,3.514-3.023C23.878,18.522,25.445,19.883,25.441,21.558"/>
		</g>
	</g>
	<path fill="#FFFFFF" d="M18.751,17.809c0,0.115-0.094,0.208-0.208,0.208c-0.115,0-0.208-0.094-0.208-0.208S18.43,17.6,18.544,17.6
		C18.66,17.6,18.751,17.694,18.751,17.809"/>
	<path fill="#FFFFFF" d="M25.821,17.619c0,0.115-0.093,0.208-0.208,0.207c-0.115,0-0.208-0.093-0.207-0.208
		c0-0.115,0.093-0.208,0.208-0.208C25.729,17.41,25.822,17.504,25.821,17.619"/>
	<path fill="#FFFFFF" d="M16.213,21.167c-0.001,0.115-0.095,0.208-0.21,0.207c-0.114,0-0.207-0.093-0.207-0.208
		c0-0.115,0.094-0.208,0.209-0.208C16.119,20.958,16.213,21.052,16.213,21.167"/>
	<path fill="#FFFFFF" d="M26.251,21.192c0,0.115-0.094,0.208-0.208,0.208c-0.115,0-0.209-0.093-0.208-0.208s0.093-0.208,0.208-0.207
		C26.159,20.984,26.251,21.077,26.251,21.192"/>
	<path fill="#FFFFFF" d="M18.959,18.717c0,0.058-0.047,0.104-0.104,0.104c-0.057,0-0.105-0.047-0.104-0.105
		c0-0.056,0.047-0.103,0.104-0.102C18.912,18.614,18.959,18.66,18.959,18.717"/>
	<path fill="#FFFFFF" d="M21.949,16.293c-0.001,0.057-0.047,0.103-0.104,0.103c-0.058,0-0.104-0.047-0.103-0.103
		c0-0.058,0.046-0.105,0.103-0.105C21.902,16.188,21.949,16.236,21.949,16.293"/>
	<path fill="#FFFFFF" d="M25.022,18.525c0,0.057-0.047,0.103-0.105,0.103c-0.057,0-0.104-0.046-0.103-0.104
		c0-0.058,0.046-0.103,0.104-0.104C24.976,18.421,25.022,18.467,25.022,18.525"/>
	<path fill="#FFFFFF" d="M27.775,21.387c0,0.057-0.047,0.104-0.105,0.103c-0.056,0-0.102-0.046-0.103-0.104
		c0-0.057,0.048-0.104,0.104-0.103C27.729,21.283,27.775,21.33,27.775,21.387"/>
	<path fill="#FFFFFF" d="M16.783,21.433c0,0.057-0.047,0.103-0.104,0.103c-0.058,0-0.105-0.047-0.104-0.103
		c0-0.058,0.046-0.105,0.104-0.105C16.736,21.328,16.783,21.375,16.783,21.433"/>
	<path fill="#FFFFFF" d="M19.049,24.034c-0.001,0.057-0.046,0.104-0.104,0.104s-0.104-0.047-0.104-0.104
		c0-0.057,0.046-0.104,0.104-0.104S19.049,23.977,19.049,24.034"/>
	<path fill="#FFFFFF" d="M18.213,23.177c0,0.057-0.046,0.104-0.103,0.104c-0.059,0-0.104-0.047-0.105-0.105
		c0.001-0.056,0.048-0.103,0.105-0.102C18.168,23.074,18.213,23.121,18.213,23.177"/>
	<path fill="#FFFFFF" d="M17.704,21.258c-0.001,0.057-0.046,0.104-0.104,0.103c-0.058,0-0.104-0.047-0.104-0.104
		c0-0.058,0.047-0.104,0.104-0.104C17.658,21.153,17.704,21.2,17.704,21.258"/>
	<path fill="#FFFFFF" d="M26.691,21.561c0.001,0.058-0.046,0.104-0.103,0.104c-0.059,0-0.104-0.047-0.104-0.104
		c0.001-0.057,0.047-0.103,0.104-0.103C26.646,21.458,26.692,21.504,26.691,21.561"/>
	<path fill="#FFFFFF" d="M25.865,23.093c0,0.057-0.047,0.103-0.104,0.103c-0.057,0-0.104-0.047-0.104-0.104
		c0-0.058,0.047-0.104,0.104-0.104C25.819,22.99,25.865,23.036,25.865,23.093"/>
	<path fill="#FFFFFF" d="M25.553,18.318c0,0.058-0.048,0.104-0.104,0.104c-0.057,0-0.103-0.047-0.103-0.104
		c0-0.058,0.047-0.104,0.103-0.104C25.507,18.214,25.553,18.261,25.553,18.318"/>
	<path fill="#FFFFFF" d="M27.192,21.079c-0.001,0.058-0.047,0.104-0.104,0.103c-0.058,0-0.104-0.045-0.104-0.103
		c0-0.057,0.047-0.104,0.105-0.103C27.146,20.976,27.191,21.023,27.192,21.079"/>
	<path fill="#FFFFFF" d="M22.087,17.505c0,0.058-0.047,0.104-0.104,0.103c-0.059,0-0.104-0.047-0.104-0.103
		c0-0.058,0.046-0.104,0.104-0.104C22.042,17.401,22.087,17.448,22.087,17.505"/>
	<path fill="#FFFFFF" d="M21.646,9.5c-7.18-0.019-13.017,5.787-13.033,12.967c-0.019,7.18,5.787,13.015,12.967,13.033
		c7.179,0.019,13.015-5.787,13.033-12.967C34.631,15.354,28.824,9.519,21.646,9.5 M21.586,32.767
		c-5.671-0.014-10.256-4.623-10.241-10.293c0.014-5.671,4.623-10.256,10.293-10.241c5.67,0.014,10.257,4.623,10.242,10.293
		C31.864,28.196,27.256,32.783,21.586,32.767"/>
	
		<rect x="20.008" y="10.908" transform="matrix(0.6717 -0.7408 0.7408 0.6717 -9.9892 23.3717)" fill="#FFFFFF" width="2.733" height="24.097"/>
</g>
</svg>
