<?xml version="1.0" encoding="utf-8"?>
<!-- Generator: Adobe Illustrator 15.0.0, SVG Export Plug-In . SVG Version: 6.00 Build 0)  -->
<!DOCTYPE svg PUBLIC "-//W3C//DTD SVG 1.1//EN" "http://www.w3.org/Graphics/SVG/1.1/DTD/svg11.dtd">
<svg version="1.1" id="שכבה_1" xmlns="http://www.w3.org/2000/svg" xmlns:xlink="http://www.w3.org/1999/xlink" x="0px" y="0px"
	 width="190px" height="45px" viewBox="0 0 190 45" enable-background="new 0 0 190 45" xml:space="preserve">
<g>
	<g>
		<path d="M52.437,20.527c-0.185-0.18-0.278-0.396-0.278-0.649v-6.7c0-0.72-0.089-1.273-0.268-1.66
			c-0.179-0.387-0.471-0.663-0.875-0.83c-0.405-0.166-0.972-0.25-1.699-0.25c-0.536,0-1.071,0.03-1.606,0.09
			c-0.536,0.061-1.181,0.15-1.936,0.271c-0.247,0.04-0.463-0.007-0.648-0.14c-0.186-0.134-0.299-0.313-0.34-0.54
			c-0.028-0.214,0.031-0.41,0.175-0.591c0.144-0.18,0.333-0.29,0.566-0.329c1.345-0.24,2.635-0.36,3.871-0.36
			c1.139,0,2.045,0.146,2.718,0.439c0.673,0.294,1.16,0.754,1.462,1.381c0.302,0.626,0.453,1.467,0.453,2.52v6.7
			c0,0.253-0.089,0.47-0.268,0.649c-0.179,0.181-0.398,0.271-0.659,0.271C52.845,20.798,52.622,20.708,52.437,20.527z"/>
		<path d="M57.214,15.708c-0.186-0.181-0.278-0.396-0.278-0.65v-5.3c0-0.253,0.089-0.47,0.268-0.65
			c0.178-0.18,0.398-0.27,0.659-0.27s0.484,0.09,0.669,0.27c0.185,0.181,0.278,0.397,0.278,0.65v5.3c0,0.254-0.089,0.47-0.268,0.65
			c-0.179,0.18-0.398,0.27-0.659,0.27S57.399,15.888,57.214,15.708z"/>
		<path d="M71.328,9.908c0.713,0.659,1.07,1.75,1.07,3.27v6.72c0,0.254-0.089,0.471-0.268,0.65c-0.179,0.18-0.398,0.27-0.659,0.27
			c-0.261,0-0.484-0.09-0.669-0.27c-0.185-0.18-0.278-0.396-0.278-0.65v-6.72c0-1.013-0.192-1.71-0.577-2.09s-0.926-0.57-1.626-0.57
			h-3.418c-0.261,0.427-0.436,0.914-0.525,1.46c-0.089,0.547-0.134,1.193-0.134,1.94v5.979c0,0.254-0.089,0.471-0.268,0.65
			c-0.179,0.18-0.398,0.27-0.659,0.27s-0.483-0.09-0.669-0.27c-0.185-0.18-0.278-0.396-0.278-0.65v-6.08
			c0-0.6,0.075-1.203,0.227-1.81c0.151-0.606,0.371-1.104,0.659-1.49H62.33c-0.247,0-0.457-0.076-0.628-0.229
			c-0.172-0.153-0.257-0.344-0.257-0.57s0.085-0.417,0.257-0.57c0.171-0.152,0.381-0.229,0.628-0.229h5.992
			C69.611,8.918,70.614,9.248,71.328,9.908z"/>
		<path d="M75.775,20.558c-0.179-0.173-0.268-0.387-0.268-0.64V9.737c0-0.253,0.089-0.47,0.268-0.649
			c0.178-0.18,0.398-0.271,0.659-0.271s0.484,0.091,0.669,0.271c0.185,0.18,0.278,0.396,0.278,0.649v0.921
			c0.535-0.493,1.256-0.927,2.162-1.301c0.906-0.373,1.805-0.56,2.697-0.56c1.345,0,2.364,0.4,3.058,1.2s1.039,1.979,1.039,3.54
			v6.38c0,0.253-0.072,0.45-0.216,0.59s-0.354,0.21-0.628,0.21H80.86c-0.22,0-0.412-0.08-0.576-0.24
			c-0.165-0.16-0.247-0.347-0.247-0.56c0-0.227,0.082-0.417,0.247-0.57c0.165-0.153,0.356-0.229,0.576-0.229h3.604v-5.381
			c0-0.853-0.079-1.516-0.236-1.989c-0.158-0.474-0.42-0.811-0.783-1.011c-0.363-0.199-0.875-0.3-1.533-0.3
			c-0.77,0-1.593,0.204-2.471,0.61c-0.879,0.407-1.565,0.863-2.059,1.37v7.5c0,0.253-0.093,0.467-0.278,0.64
			c-0.186,0.173-0.409,0.26-0.669,0.26S75.953,20.73,75.775,20.558z"/>
		<path d="M104.146,9.908c0.714,0.659,1.071,1.75,1.071,3.27v6.72c0,0.254-0.09,0.471-0.269,0.65s-0.397,0.27-0.659,0.27
			c-0.26,0-0.483-0.09-0.668-0.27c-0.186-0.18-0.279-0.396-0.279-0.65v-6.72c0-1.013-0.191-1.71-0.576-2.09s-0.926-0.57-1.626-0.57
			h-3.418c-0.179,0.414-0.288,0.857-0.329,1.33c-0.041,0.474-0.063,1.09-0.063,1.851v6.22c0,0.227-0.082,0.417-0.246,0.569
			c-0.166,0.154-0.365,0.23-0.598,0.23h-2.594c-0.221,0-0.412-0.08-0.577-0.24s-0.247-0.347-0.247-0.56
			c0-0.227,0.082-0.417,0.247-0.57s0.356-0.229,0.577-0.229h1.564v-5.5c0-1.307,0.178-2.341,0.535-3.101H94.86
			c-0.247,0-0.457-0.076-0.628-0.229c-0.172-0.153-0.257-0.344-0.257-0.57s0.085-0.417,0.257-0.57
			c0.171-0.152,0.381-0.229,0.628-0.229h6.28C102.431,8.918,103.433,9.248,104.146,9.908z"/>
		<path d="M116.5,9.088c0.179,0.18,0.268,0.396,0.268,0.649v3.7c0,1.987-0.313,3.527-0.937,4.62c-0.625,1.094-1.672,1.88-3.141,2.36
			l-4.652,1.54c-0.11,0.04-0.213,0.06-0.309,0.06c-0.18,0-0.34-0.05-0.484-0.149c-0.145-0.101-0.244-0.23-0.299-0.391
			c-0.027-0.053-0.041-0.146-0.041-0.279c0-0.16,0.051-0.313,0.154-0.461c0.104-0.146,0.244-0.246,0.422-0.3l2.842-0.92l-2.718-9.54
			c-0.028-0.106-0.042-0.18-0.042-0.22c0-0.24,0.097-0.453,0.289-0.64c0.191-0.187,0.418-0.28,0.68-0.28
			c0.205,0,0.395,0.06,0.566,0.18c0.171,0.12,0.284,0.28,0.34,0.48l2.655,9.439l0.37-0.12c0.865-0.279,1.486-0.85,1.863-1.71
			c0.378-0.859,0.566-2.083,0.566-3.67v-3.7c0-0.253,0.094-0.47,0.278-0.649c0.186-0.18,0.408-0.271,0.669-0.271
			S116.321,8.908,116.5,9.088z"/>
		<path d="M129.142,19.918c0,0.106-0.034,0.227-0.103,0.359c-0.083,0.16-0.224,0.273-0.423,0.341c-0.198,0.066-0.456,0.1-0.771,0.1
			h-8.174c-0.22,0-0.412-0.08-0.576-0.24c-0.165-0.16-0.248-0.347-0.248-0.56c0-0.227,0.083-0.417,0.248-0.57
			c0.164-0.153,0.356-0.229,0.576-0.229h6.732l-7.639-8.881c-0.137-0.173-0.205-0.346-0.205-0.52c0-0.28,0.129-0.526,0.391-0.74
			c0.164-0.12,0.343-0.18,0.535-0.18c0.315,0,0.569,0.12,0.762,0.36l4.653,5.439l2.368-5.24c0.096-0.199,0.227-0.333,0.391-0.399
			c0.124-0.08,0.268-0.12,0.433-0.12s0.319,0.04,0.464,0.12c0.144,0.08,0.264,0.2,0.359,0.359c0.068,0.16,0.104,0.301,0.104,0.42
			c0,0.12-0.035,0.261-0.104,0.421l-2.738,5.92l2.615,3.06C129.024,19.404,129.142,19.665,129.142,19.918z"/>
		<path d="M140.29,20.548c-0.185-0.18-0.277-0.396-0.277-0.65v-6.72c0-0.706-0.109-1.257-0.33-1.65
			c-0.219-0.393-0.576-0.673-1.07-0.84c-0.494-0.166-1.181-0.25-2.059-0.25c-1.208,0-2.622,0.147-4.242,0.44
			c-0.232,0.04-0.449-0.003-0.648-0.13s-0.318-0.304-0.359-0.53c-0.028-0.213,0.03-0.406,0.174-0.58
			c0.145-0.173,0.334-0.286,0.566-0.34c0.742-0.146,1.523-0.26,2.348-0.34s1.572-0.12,2.244-0.12c1.277,0,2.296,0.146,3.058,0.439
			c0.762,0.294,1.317,0.757,1.668,1.391c0.351,0.633,0.524,1.47,0.524,2.51v6.72c0,0.254-0.089,0.471-0.268,0.65
			c-0.178,0.18-0.398,0.27-0.658,0.27C140.698,20.817,140.476,20.728,140.29,20.548z M132.157,20.548
			c-0.186-0.18-0.277-0.396-0.277-0.65v-5.38c0-0.253,0.089-0.47,0.268-0.649c0.178-0.181,0.398-0.271,0.658-0.271
			c0.262,0,0.484,0.09,0.67,0.271c0.186,0.18,0.277,0.396,0.277,0.649v5.38c0,0.254-0.089,0.471-0.268,0.65
			c-0.178,0.18-0.398,0.27-0.658,0.27C132.565,20.817,132.343,20.728,132.157,20.548z"/>
		<path d="M150.112,20.548c-0.186-0.18-0.278-0.396-0.278-0.65V9.758c0-0.253,0.089-0.47,0.268-0.65
			c0.179-0.18,0.397-0.27,0.659-0.27c0.26,0,0.483,0.09,0.669,0.27c0.185,0.181,0.278,0.397,0.278,0.65v10.14
			c0,0.254-0.09,0.471-0.268,0.65c-0.18,0.18-0.398,0.27-0.66,0.27C150.521,20.817,150.298,20.728,150.112,20.548z"/>
		<path d="M156.7,20.317c-0.09-0.146-0.134-0.3-0.134-0.46c0-0.133,0.034-0.279,0.103-0.439l4.53-8.9h-6.259
			c-0.33,0-0.566-0.066-0.711-0.2c-0.145-0.133-0.216-0.353-0.216-0.659v-2.7c0-0.253,0.089-0.471,0.268-0.65s0.384-0.27,0.618-0.27
			c0.232,0,0.441,0.09,0.627,0.27s0.278,0.397,0.278,0.65v1.96h6.136c0.343,0,0.628,0.116,0.854,0.35s0.34,0.53,0.34,0.891
			c0,0.279-0.069,0.553-0.206,0.819l-4.633,9.28c-0.082,0.16-0.195,0.283-0.34,0.37s-0.305,0.13-0.483,0.13
			c-0.151,0-0.288-0.033-0.412-0.1C156.909,20.578,156.79,20.465,156.7,20.317z"/>
		<path d="M176.168,19.348c0.165,0.153,0.247,0.344,0.247,0.57s-0.082,0.417-0.247,0.569c-0.165,0.154-0.364,0.23-0.597,0.23h-9.883
			c-0.221,0-0.412-0.08-0.577-0.24s-0.247-0.347-0.247-0.56c0-0.227,0.082-0.417,0.247-0.57s0.356-0.229,0.577-0.229h6.959v-5.94
			c0-0.72-0.09-1.276-0.268-1.67c-0.18-0.394-0.471-0.677-0.875-0.85c-0.406-0.174-0.972-0.261-1.699-0.261
			c-0.535,0-1.078,0.037-1.627,0.11s-1.297,0.197-2.244,0.37c-0.233,0.04-0.449-0.003-0.648-0.13s-0.318-0.304-0.36-0.53
			c-0.027-0.213,0.031-0.406,0.175-0.58c0.145-0.173,0.333-0.286,0.566-0.34c1.469-0.333,2.875-0.5,4.221-0.5
			c1.14,0,2.045,0.15,2.719,0.45c0.672,0.3,1.159,0.767,1.461,1.399c0.303,0.634,0.453,1.478,0.453,2.53v5.94h1.051
			C175.804,19.118,176.003,19.194,176.168,19.348z"/>
		<path d="M182.364,20.638c-0.219-0.053-0.397-0.153-0.535-0.3c-0.137-0.146-0.205-0.32-0.205-0.521c0-0.239,0.1-0.442,0.299-0.609
			c0.198-0.167,0.422-0.224,0.668-0.17c0.193,0.04,0.389,0.073,0.588,0.1c0.198,0.027,0.428,0.04,0.689,0.04
			c1.469,0,2.203-0.906,2.203-2.72v-5.94h-7.475c-0.246,0-0.456-0.076-0.627-0.229c-0.172-0.153-0.258-0.344-0.258-0.57
			s0.086-0.417,0.258-0.57c0.171-0.152,0.381-0.229,0.627-0.229h8.113c0.342,0,0.635,0.1,0.875,0.3
			c0.239,0.2,0.359,0.453,0.359,0.76v6.48c0,1.507-0.367,2.604-1.102,3.29s-1.727,1.029-2.975,1.029
			C183.347,20.777,182.845,20.73,182.364,20.638z M178.381,24.307c-0.186-0.18-0.278-0.396-0.278-0.648v-9.341
			c0-0.253,0.09-0.47,0.268-0.649c0.179-0.181,0.398-0.271,0.659-0.271s0.483,0.09,0.669,0.271c0.186,0.18,0.278,0.396,0.278,0.649
			v9.341c0,0.252-0.089,0.469-0.268,0.648s-0.398,0.271-0.659,0.271S178.565,24.487,178.381,24.307z"/>
		<path d="M80.165,29.534c0.722-0.102,1.387-0.15,1.991-0.15c1.511,0,2.563,0.283,3.156,0.85c0.594,0.568,0.891,1.424,0.891,2.568
			v3.916h-1.337v-3.568c0-0.66-0.073-1.16-0.219-1.496c-0.146-0.338-0.424-0.611-0.838-0.82c-0.412-0.211-0.989-0.314-1.73-0.314
			c-0.502,0-1.103,0.045-1.802,0.137L80.165,29.534z"/>
		<path d="M88.94,32.493l-1.154-3.027h1.316l0.549,1.6c0.221-0.471,0.564-0.867,1.034-1.193s0.974-0.488,1.513-0.488
			c0.572,0,1.066,0.143,1.482,0.426c0.414,0.285,0.716,0.701,0.904,1.248c0.188,0.547,0.281,1.369,0.281,2.469v3.191h-3.85v-1.094
			h2.491v-2.125c0-0.803-0.027-1.387-0.081-1.754c-0.055-0.367-0.192-0.666-0.416-0.896c-0.223-0.229-0.502-0.344-0.84-0.344
			c-0.525,0-0.973,0.262-1.341,0.789c-0.368,0.525-0.682,1.439-0.94,2.738l-0.527,2.686h-1.357l0.59-2.83
			C88.651,33.62,88.767,33.155,88.94,32.493z"/>
		<path d="M98.349,29.465v3.752h-1.371v-3.752H98.349z"/>
		<path d="M105.563,29.465l-0.07,1.305c-0.023,0.434-0.074,0.783-0.152,1.049c-0.076,0.268-0.24,0.543-0.488,0.824
			c-0.249,0.283-0.646,0.576-1.189,0.883l1.598,2.42v0.771h-5.377v-1.094h3.751l-4.124-6.158h1.527l2.076,3.219
			c0.352-0.25,0.603-0.518,0.753-0.803c0.149-0.285,0.226-0.689,0.226-1.213l0.07-1.203H105.563z"/>
		<path d="M107.393,29.594c0.849-0.141,1.675-0.211,2.478-0.211c1.557,0,2.634,0.279,3.23,0.84c0.596,0.561,0.893,1.42,0.893,2.578
			v3.916h-1.344v-3.568c0-0.725-0.087-1.256-0.26-1.596c-0.174-0.34-0.473-0.598-0.898-0.773c-0.424-0.174-1.042-0.262-1.854-0.262
			c-0.639,0-1.35,0.063-2.133,0.191L107.393,29.594z M108.821,32.629v4.088h-1.344v-4.088H108.821z"/>
		<path d="M121.481,29.465v3.752h-1.372v-3.752H121.481z"/>
		<path d="M124.331,29.465h4.139v1.805c0,0.51-0.049,0.924-0.148,1.24c-0.098,0.316-0.27,0.637-0.514,0.961l-0.379,0.492
			c-0.381,0.496-0.57,1.027-0.57,1.592v1.162h-1.344v-0.977c0-0.588,0.059-1.031,0.179-1.326c0.12-0.297,0.294-0.588,0.524-0.875
			l0.422-0.52c0.207-0.256,0.34-0.486,0.398-0.691s0.088-0.469,0.088-0.793v-0.977h-4.131v-3.863h1.336V29.465z"/>
		<path d="M131.468,35.836l-1.295-6.371h1.414l1.105,5.967c0.798-0.305,1.297-0.744,1.499-1.316c0.202-0.57,0.303-1.289,0.303-2.156
			l0.07-2.494h1.358l-0.07,1.92c-0.037,0.926-0.078,1.574-0.123,1.949c-0.045,0.373-0.167,0.785-0.366,1.232
			c-0.2,0.449-0.491,0.84-0.876,1.17s-0.949,0.633-1.693,0.906c-0.743,0.273-1.805,0.521-3.184,0.744l-0.19-1.135
			C130.26,36.135,130.942,35.995,131.468,35.836z"/>
		<path d="M143.179,35.624h1.189v1.094h-7.144v-1.094h4.609v-2.475c0-0.674-0.077-1.182-0.232-1.521
			c-0.155-0.338-0.435-0.609-0.841-0.809c-0.406-0.201-1.038-0.301-1.896-0.301c-0.305,0-0.777,0.031-1.414,0.096l-0.113-1.08
			c0.633-0.102,1.307-0.15,2.02-0.15c1.342,0,2.314,0.281,2.918,0.848c0.602,0.564,0.904,1.422,0.904,2.57V35.624z"/>
		<path d="M146.401,32.493l-1.154-3.027h1.316l0.549,1.6c0.221-0.471,0.564-0.867,1.034-1.193s0.974-0.488,1.513-0.488
			c0.572,0,1.066,0.143,1.482,0.426c0.414,0.285,0.716,0.701,0.904,1.248c0.188,0.547,0.281,1.369,0.281,2.469v3.191h-3.85v-1.094
			h2.491v-2.125c0-0.803-0.027-1.387-0.081-1.754c-0.055-0.367-0.192-0.666-0.416-0.896c-0.223-0.229-0.502-0.344-0.84-0.344
			c-0.525,0-0.973,0.262-1.341,0.789c-0.368,0.525-0.682,1.439-0.94,2.738l-0.527,2.686h-1.357l0.59-2.83
			C146.112,33.62,146.228,33.155,146.401,32.493z"/>
	</g>
	<path fill="#2BB5E9" d="M42.612,22.502c0,11.6-9.399,20.999-21,20.999c-11.6,0-21-9.398-21-20.999c0-11.602,9.4-21.001,21-21.001
		C33.213,1.5,42.612,10.901,42.612,22.502z"/>
	<g>
		<polyline fill="#FFFFFF" points="35.174,19.091 8.051,13.201 18.452,31.801 35.045,19.104 		"/>
		<line fill="none" x1="27.764" y1="24.624" x2="8.051" y2="13.201"/>
		<polygon fill="#FFFFFF" points="27.592,24.69 29.996,31.659 24.09,27.454 		"/>
	</g>
	
		<line fill="none" stroke="#2BB5E9" stroke-width="0.5" stroke-linecap="round" stroke-miterlimit="10" x1="8.051" y1="13.201" x2="26.367" y2="25.657"/>
</g>
</svg>
