<?xml version="1.0" encoding="utf-8"?>
<!-- Generator: Adobe Illustrator 15.0.0, SVG Export Plug-In . SVG Version: 6.00 Build 0)  -->
<!DOCTYPE svg PUBLIC "-//W3C//DTD SVG 1.1//EN" "http://www.w3.org/Graphics/SVG/1.1/DTD/svg11.dtd">
<svg version="1.1" id="שכבה_1" xmlns="http://www.w3.org/2000/svg" xmlns:xlink="http://www.w3.org/1999/xlink" x="0px" y="0px"
	 width="30px" height="30px" viewBox="0 0 30 30" enable-background="new 0 0 30 30" xml:space="preserve">
<g>
	<path fill="#497BBE" d="M22.629,13.347c0.373,0.666,0.655,1.364,0.842,2.091c0.188,0.728,0.279,1.47,0.279,2.229v1.43L15,23.555
		l-8.751-4.458c0-0.556,0.008-1.074,0.022-1.556c0.013-0.48,0.055-0.951,0.123-1.41c0.067-0.457,0.178-0.912,0.327-1.361
		c0.151-0.448,0.367-0.923,0.649-1.423L4.5,11.888v8.153c0.264,0.093,0.504,0.223,0.718,0.39c0.213,0.166,0.398,0.36,0.555,0.583
		c0.154,0.221,0.271,0.464,0.354,0.729c0.082,0.264,0.122,0.533,0.122,0.811V27H1v-4.446c0-0.277,0.04-0.547,0.123-0.811
		c0.082-0.266,0.2-0.509,0.355-0.729c0.155-0.223,0.339-0.417,0.554-0.583c0.213-0.167,0.452-0.297,0.717-0.39v-9.043L1,10.11L15,3
		l14,7.11L22.629,13.347z"/>
	<path fill="#FFFFFF" d="M4.5,22.554c0-0.24-0.086-0.448-0.259-0.623c-0.174-0.177-0.38-0.266-0.615-0.266
		c-0.24,0-0.442,0.089-0.616,0.266c-0.173,0.175-0.26,0.383-0.26,0.623v2.668H4.5V22.554z"/>
	<path fill="#FFFFFF" d="M22,18c0-0.714-0.068-1.378-0.204-1.993c-0.137-0.615-0.378-1.239-0.726-1.868L15,17.223l-6.07-3.084
		c-0.302,0.536-0.531,1.104-0.689,1.701C8.08,16.437,8,17.046,8,17.667V18l7,3.556L22,18z"/>
</g>
</svg>
