<?xml version="1.0" encoding="utf-8"?>
<!-- Generator: Adobe Illustrator 15.0.0, SVG Export Plug-In . SVG Version: 6.00 Build 0)  -->
<!DOCTYPE svg PUBLIC "-//W3C//DTD SVG 1.1//EN" "http://www.w3.org/Graphics/SVG/1.1/DTD/svg11.dtd">
<svg version="1.1" id="שכבה_1" xmlns="http://www.w3.org/2000/svg" xmlns:xlink="http://www.w3.org/1999/xlink" x="0px" y="0px"
	 width="26px" height="26px" viewBox="0 0 26 26" enable-background="new 0 0 26 26" xml:space="preserve">
<g>
	<circle fill="#497CBF" cx="13" cy="13" r="12.5"/>
	<path fill-rule="evenodd" clip-rule="evenodd" fill="#FFFFFF" d="M18.958,11.713c0.061-0.545,0.458-2.412,0.533-3.474
		c0.029-0.398,0-0.992-0.449-1.169c-0.417-0.164-0.9-0.008-1.297,0.129c-0.834,0.286-1.654,0.607-2.468,0.94
		c-0.524,0.214-1.047,0.429-1.575,0.632c-0.988,0.382-1.947,0.844-2.953,1.202c-0.292,0.103-0.562,0.25-0.85,0.361
		c-0.375,0.143-0.748,0.292-1.119,0.442c-0.741,0.296-1.473,0.604-2.206,0.914c-0.416,0.177-0.826,0.356-1.24,0.533
		c-0.179,0.078-0.376,0.196-0.548,0.293c-0.209,0.119-0.338,0.425-0.268,0.646c0.091,0.297,0.468,0.364,0.726,0.467
		c0.188,0.073,0.382,0.137,0.578,0.191c0.389,0.109,0.807,0.163,1.18,0.295c0.046,0.016,0.123,0.014,0.17,0.022
		c0.686,0.141,1.354,0.226,2.018-0.049c0.586-0.241,1.113-0.63,1.618-0.999c0.287-0.211,0.557-0.439,0.842-0.651
		c0.897-0.669,1.89-1.257,2.843-1.851c0.28-0.176,0.563-0.346,0.853-0.505c0.152-0.086,0.307-0.095,0.395,0.082
		c0.154,0.313-0.332,0.587-0.531,0.763c-0.465,0.41-0.914,0.824-1.379,1.225c-0.146,0.126-0.289,0.258-0.422,0.395
		c-0.348,0.349-0.722,0.668-1.083,1c-0.301,0.277-0.58,0.57-0.879,0.845c-0.232,0.213-0.63,0.491-0.503,0.847
		c0.1,0.44,0.533,0.582,0.844,0.859c0.279,0.248,0.626,0.419,0.936,0.632c0.628,0.435,1.305,0.79,1.947,1.22
		c0.293,0.197,0.563,0.423,0.876,0.59c0.305,0.167,0.64,0.281,0.97,0.393c1.223,0.41,1.384-1.149,1.479-1.904L18.958,11.713z"/>
</g>
</svg>
