<?xml version="1.0" encoding="utf-8"?>
<!-- Generator: Adobe Illustrator 15.0.0, SVG Export Plug-In . SVG Version: 6.00 Build 0)  -->
<!DOCTYPE svg PUBLIC "-//W3C//DTD SVG 1.1//EN" "http://www.w3.org/Graphics/SVG/1.1/DTD/svg11.dtd">
<svg version="1.1" id="שכבה_1" xmlns="http://www.w3.org/2000/svg" xmlns:xlink="http://www.w3.org/1999/xlink" x="0px" y="0px"
	 width="26px" height="26px" viewBox="0 0 26 26" enable-background="new 0 0 26 26" xml:space="preserve">
<g>
	<circle fill="#497CBF" cx="13" cy="13" r="12.5"/>
	<path fill-rule="evenodd" clip-rule="evenodd" fill="#FFFFFF" d="M13.395,5.5c0.843,0,1.689,0,2.533,0
		c0.109,2.321,1.373,3.507,3.572,3.768c0,0.833,0,1.666,0,2.5c-1.582-0.025-2.654-0.552-3.613-1.189
		c-0.088,1.828,0.123,3.834,0,5.528c-0.178,2.458-1.809,4.223-4.235,4.382C8.854,20.674,6.506,18.654,6.5,15.82
		c-0.006-2.916,2.166-5.253,5.483-4.749c0,0.9,0,1.8,0,2.702c-1.282-0.187-2.179,0.282-2.576,1.064
		c-0.844,1.658,0.684,3.582,2.616,2.865c0.484-0.179,1.021-0.619,1.205-1.145c0.254-0.724,0.126-1.713,0.126-2.663
		c0-2.77,0-5.553,0-8.271C13.349,5.565,13.344,5.508,13.395,5.5z"/>
</g>
</svg>
