<?xml version="1.0" encoding="utf-8"?>
<!-- Generator: Adobe Illustrator 15.0.0, SVG Export Plug-In . SVG Version: 6.00 Build 0)  -->
<!DOCTYPE svg PUBLIC "-//W3C//DTD SVG 1.1//EN" "http://www.w3.org/Graphics/SVG/1.1/DTD/svg11.dtd">
<svg version="1.1" id="שכבה_1" xmlns="http://www.w3.org/2000/svg" xmlns:xlink="http://www.w3.org/1999/xlink" x="0px" y="0px"
	 width="26px" height="26px" viewBox="0 0 26 26" enable-background="new 0 0 26 26" xml:space="preserve">
<g>
	<circle fill="#497CBF" cx="13" cy="13" r="12.5"/>
	<path fill-rule="evenodd" clip-rule="evenodd" fill="#FFFFFF" d="M21.5,9.65c-0.416,0.594-1.125,1.077-1.803,1.427
		c-0.342,2.95-1.758,5.079-3.58,6.521c-1.885,1.493-4.283,2.318-7.438,1.689c-1.813-0.36-2.989-1.159-4.179-2.082
		c1.988,0.408,3.656,0.099,4.871-0.668c-1.553-0.381-2.311-1.359-2.613-2.68c0.412,0.06,0.981,0.215,1.401,0.129
		c-1.387-0.683-2.221-1.78-2.046-3.632c0.364,0.262,0.75,0.507,1.331,0.607c-0.564-0.617-1.145-1.67-0.96-2.917
		C6.576,7.422,6.847,6.949,7.139,6.5c1.315,2.007,3.039,3.707,6.109,4.397c-0.065-2.232,1.717-3.818,3.706-3.53
		c1.045,0.151,1.732,0.747,2.234,1.41c0.77-0.04,1.533-0.267,2.111-0.456c-0.365,0.766-0.961,1.213-1.625,1.569
		C20.322,9.865,20.965,9.832,21.5,9.65z"/>
</g>
</svg>
