<?xml version="1.0" encoding="utf-8"?>
<!-- Generator: Adobe Illustrator 15.0.0, SVG Export Plug-In . SVG Version: 6.00 Build 0)  -->
<!DOCTYPE svg PUBLIC "-//W3C//DTD SVG 1.1//EN" "http://www.w3.org/Graphics/SVG/1.1/DTD/svg11.dtd">
<svg version="1.1" id="שכבה_1" xmlns="http://www.w3.org/2000/svg" xmlns:xlink="http://www.w3.org/1999/xlink" x="0px" y="0px"
	 width="30px" height="30px" viewBox="0 0 30 30" enable-background="new 0 0 30 30" xml:space="preserve">
<path fill="#497BBE" d="M8.466,9.825l-4.32,1.645c0.229,0.603,0.586,1.156,1.057,1.627c0.118,0.117,0.243,0.226,0.369,0.33
	l2.893-3.578C8.465,9.842,8.465,9.834,8.466,9.825z M8.685,9.519l2.345-3.587c-0.683-0.447-1.476-0.705-2.306-0.747L8.495,9.733
	C8.53,9.658,8.593,9.588,8.685,9.519z M8.473,9.794L5.572,6.209c-0.126,0.103-0.25,0.212-0.369,0.33
	c-0.471,0.469-0.829,1.02-1.056,1.622l4.322,1.646C8.469,9.804,8.473,9.799,8.473,9.794z M8.464,9.855l-2.514,3.844
	c0.685,0.449,1.475,0.708,2.305,0.747l0.229-4.487C8.472,9.928,8.463,9.892,8.464,9.855L8.464,9.855z M8.469,9.809l-4.468-1.2
	C3.896,8.996,3.842,9.401,3.842,9.817c0,0.413,0.054,0.82,0.159,1.208l4.465-1.203C8.466,9.818,8.466,9.815,8.469,9.809z
	 M5.951,5.932l2.524,3.86c0.001-0.017,0.007-0.03,0.012-0.043L8.255,5.185C7.425,5.227,6.636,5.484,5.951,5.932z M8.915,10.341
	c0.516,0.265,1.446,0.487,2.629,0.637L8.49,9.817v0.001L8.915,10.341z M20.001,10.72L20.001,10.72
	c-0.014,0.005-0.023,0.007-0.033,0.01C19.978,10.727,19.987,10.725,20.001,10.72z M11.778,6.539
	c-0.118-0.118-0.241-0.228-0.368-0.33L8.49,9.817l4.345-1.656C12.605,7.559,12.249,7.008,11.778,6.539z M26.936,3.44L26.936,3.44
	l-5.379,6.281c0.023,0.047,0.034,0.092,0.034,0.134c0,0.138-0.102,0.271-0.295,0.396c0.033-0.022,0.062-0.042,0.091-0.063
	l-5.939,9.525v5.151c2.485,0.044,4.439,0.502,4.439,1.064c0,0.592-2.159,1.07-4.828,1.07c-2.665,0-4.828-0.479-4.828-1.07
	c0-0.559,1.922-1.015,4.375-1.064v-5.149l-5.938-9.527c0.035,0.027,0.075,0.054,0.117,0.078H8.785
	c-0.14-0.09-0.238-0.18-0.285-0.274l0.269,5.301H8.214v-0.008c-1.002-0.05-1.933-0.369-2.725-0.885l-0.002,0.009L5.04,14.085
	l0.003-0.006c-0.749-0.603-1.335-1.398-1.682-2.311l-0.007,0.002l-0.083-0.255c-0.01-0.03-0.022-0.062-0.032-0.095l-0.057-0.174
	H3.19C3.068,10.789,3,10.312,3,9.817S3.068,8.844,3.19,8.39L3.183,8.387L3.24,8.211C3.25,8.18,3.261,8.148,3.271,8.114L3.354,7.86
	l0.007,0.005c0.35-0.911,0.933-1.706,1.682-2.311L5.04,5.55l0.448-0.325L5.49,5.229c0.792-0.514,1.723-0.831,2.725-0.88V4.341h0.554
	V4.35c1.002,0.049,1.932,0.366,2.721,0.88l0.005-0.005l0.448,0.325l-0.004,0.005c0.75,0.604,1.333,1.399,1.682,2.311l0.008-0.005
	l0.079,0.244c0.013,0.036,0.024,0.074,0.036,0.11l0.056,0.172L13.792,8.39c0.015,0.056,0.027,0.113,0.042,0.17
	c0.388-0.017,0.786-0.023,1.193-0.023c2.789,0,5.169,0.352,6.12,0.844l5.385-6.288c0.095-0.112,0.263-0.122,0.375-0.026
	C27.019,3.159,27.032,3.326,26.936,3.44z M8.49,9.817l4.49,1.208c0.106-0.388,0.159-0.795,0.159-1.208
	c0-0.416-0.053-0.821-0.159-1.209L8.49,9.817z M15.026,8.747c-0.388,0-0.772,0.009-1.147,0.02c0.067,0.339,0.102,0.692,0.102,1.051
	c0,0.386-0.042,0.767-0.119,1.129c0.381,0.015,0.768,0.023,1.164,0.023c1.742,0,3.375-0.137,4.602-0.383
	c0.232-0.045,0.43-0.094,0.609-0.142l0.769-0.899c-0.263-0.129-0.69-0.279-1.378-0.415C18.401,8.883,16.769,8.747,15.026,8.747z"/>
</svg>
